<?xml version="1.0" encoding="utf-8"?>
<svg width="800" height="259" viewBox="0 0 800 259" fill="none" xmlns="http://www.w3.org/2000/svg">
  <g>
    <g transform="translate(24.5 34.438)">
      <path d="M16.2074 0.0624716C41.5434 -0.104128 66.8764 0.0624716 92.2074 0.562471C100.272 2.29397 105.439 7.12727 107.707 15.0625C108.374 68.0625 108.374 121.062 107.707 174.062C105.54 181.562 100.707 186.395 93.2074 188.562C67.8744 189.229 42.5404 189.229 17.2074 188.562C5.01437 185.036 -0.318626 176.869 1.20737 164.062C4.20737 164.062 7.20737 164.062 10.2074 164.062C10.8634 168.849 13.5294 172.016 18.2074 173.562C42.8744 174.229 67.5404 174.229 92.2074 173.562C96.0404 172.395 98.5404 169.895 99.7074 166.062C100.374 116.395 100.374 66.7295 99.7074 17.0625C97.8484 12.5368 94.6814 9.37017 90.2074 7.56247C66.2074 6.89577 42.2074 6.89577 18.2074 7.56247C14.0404 9.06247 11.2074 11.8958 9.70737 16.0625C9.20837 21.3854 9.04137 26.7188 9.20737 32.0625C6.54037 32.0625 3.87437 32.0625 1.20737 32.0625C-2.54662 16.8886 2.45338 6.22197 16.2074 0.0624716Z" fill="#267FF4" fill-rule="evenodd" transform="translate(90.793 0)" />
      <path d="M3.78117 0.230625C8.76617 -0.498573 13.2662 0.501427 17.2812 3.23063C19.9962 11.0369 17.1632 15.3702 8.78117 16.2306C-0.914825 13.422 -2.58083 8.08873 3.78117 0.230625Z" fill="#1D7DF4" fill-rule="evenodd" transform="translate(163.219 19.831)" />
      <path d="M0 0.225668C5.6667 0.225668 11.3333 0.225668 17 0.225668C17 9.22567 17 18.2257 17 27.2257C20.5071 27.7322 23.6737 27.0655 26.5 25.2257C30.1229 17.0688 33.2896 8.73547 36 0.225668C42.7547 -0.39723 49.088 0.269369 55 2.22567C51.5151 10.5332 48.0151 18.8666 44.5 27.2257C42.4824 29.0758 40.6491 31.0758 39 33.2257C41.356 35.7474 43.5227 38.4141 45.5 41.2257C49.441 50.8887 53.2743 60.5547 57 70.2257C50.3333 70.2257 43.6667 70.2257 37 70.2257C34.7433 62.3727 31.9099 54.7057 28.5 47.2257C27.371 45.5847 25.871 44.5847 24 44.2257C21.8926 43.2575 19.5593 42.9241 17 43.2257C17 51.8927 17 60.5587 17 69.2257C11.3333 69.2257 5.6667 69.2257 0 69.2257C0 46.2257 0 23.2257 0 0.225668Z" fill="#117AF4" fill-rule="evenodd" transform="translate(0 21.836)" />
      <path d="M32.1882 0C37.8552 0 43.5212 0 49.1882 0C49.1882 23.3333 49.1882 46.667 49.1882 70C44.1882 70 39.1882 70 34.1882 70C33.4532 66.572 31.7862 66.406 29.1882 69.5C17.2252 72.936 8.39217 69.103 2.68819 58C-2.59283 43.793 -0.0928268 31.2934 10.1882 20.5C17.2052 16.9981 24.5392 16.1648 32.1882 18C32.1882 12 32.1882 6 32.1882 0Z" fill="#117AF4" fill-rule="evenodd" transform="translate(106.812 22.062)" />
      <path d="M16.8485 0.0491791C22.5805 -0.167618 28.2475 0.332382 33.8485 1.54918C39.1055 3.80548 42.6055 7.63878 44.3485 13.0492C44.8485 26.3784 45.0155 39.7122 44.8485 53.0492C40.1695 53.2152 35.5035 53.0482 30.8485 52.5492C30.3505 51.3912 29.5175 50.5582 28.3485 50.0492C18.7555 56.1132 10.0892 55.1132 2.34846 47.0492C-2.73383 35.6242 0.432766 27.4572 11.8485 22.5492C17.1159 21.3582 22.4495 20.8582 27.8485 21.0492C27.9435 14.2719 24.6095 11.7719 17.8485 13.5492C15.2165 13.9986 12.7165 14.8319 10.3485 16.0492C7.51257 12.859 5.84586 9.19238 5.34846 5.04918C9.22446 3.26518 13.0578 1.59848 16.8485 0.0491791Z" fill="#157BF4" fill-rule="evenodd" transform="translate(57.152 39.013)" />
      <path d="M0 0C5.33299 0 10.667 0 16 0C16 17 16 34 16 51C10.667 51 5.33299 51 0 51C0 34 0 17 0 0Z" fill="#0C79F4" fill-rule="evenodd" transform="translate(164 40.062)" />
      <path d="M40.8339 0C45.5009 0 50.1669 0 54.8339 0C54.8339 28.667 54.8339 57.333 54.8339 86C51.1519 86.165 47.4859 85.999 43.8339 85.5C42.6109 83.448 41.6109 81.281 40.8339 79C31.7159 86.91 21.7159 88.41 10.8339 83.5C5.22394 79.013 2.05792 73.18 1.33392 66C-2.20407 51.65 1.29593 39.483 11.8339 29.5C21.2879 23.346 30.6209 23.513 39.8339 30C40.8329 20.022 41.1659 10.0222 40.8339 0Z" fill="#117AF4" fill-rule="evenodd" transform="translate(356.166 53.062)" />
      <path d="M15 0C15 16.333 15 32.667 15 49C16.599 49.268 17.932 48.934 19 48C19.996 48.086 20.829 47.752 21.5 47C26.667 40.5 31.833 34 37 27.5C42.582 25.763 48.249 25.596 54 27C47 35.667 40 44.333 33 53C40.724 63.392 48.057 74.058 55 85C49.698 86.163 44.364 86.329 39 85.5C32.796 77.261 26.963 68.761 21.5 60C19.459 59.077 17.292 58.744 15 59C15 68 15 77 15 86C10 86 5 86 0 86C0 57.333 0 28.667 0 0C5 0 10 0 15 0Z" fill="#1C7CF4" fill-rule="evenodd" transform="translate(664 53.062)" />
      <path d="M5.16275 0.0979271C8.43974 -0.18597 11.6057 0.147427 14.6628 1.09792C15.3298 8.76463 15.3298 16.4309 14.6628 24.0979C7.37775 28.2009 2.71075 26.2009 0.66275 18.0979C-1.01225 11.2011 0.487747 5.20113 5.16275 0.0979271Z" fill="#111828" fill-rule="evenodd" transform="translate(123.837 52.964)" />
      <path d="M5.84131 0.0692711C15.3283 -0.611225 19.4953 3.72207 18.3413 13.0693C12.2973 20.9193 6.2973 20.9193 0.341309 13.0693C-0.827698 7.42197 1.00632 3.08867 5.84131 0.0692711Z" fill="#237DF4" fill-rule="evenodd" transform="translate(425.159 52.993)" />
      <path d="M23.116 0.0619545C27.462 -0.103748 31.795 0.0629539 36.116 0.561954C38.384 3.63285 38.717 6.96615 37.116 10.562C26.325 10.1869 21.658 15.354 23.116 26.062C28.116 26.062 33.116 26.062 38.116 26.062C38.116 29.729 38.116 33.395 38.116 37.062C33.116 37.062 28.116 37.062 23.116 37.062C23.116 53.062 23.116 69.062 23.116 85.062C18.116 85.062 13.116 85.062 8.11597 85.062C8.11597 68.729 8.11597 52.3949 8.11597 36.062C5.69598 36.27 3.36298 35.936 1.11597 35.062C0.131958 32.1339 -0.20105 29.1339 0.115967 26.062C2.78296 26.062 5.44897 26.062 8.11597 26.062C6.98096 13.645 11.981 4.97805 23.116 0.0619545Z" fill="#157BF4" fill-rule="evenodd" transform="translate(586.884 54)" />
      <path d="M5.84131 0.0692711C15.3283 -0.611225 19.4953 3.72207 18.3413 13.0693C12.2973 20.9193 6.2973 20.9193 0.341309 13.0693C-0.827698 7.42197 1.00629 3.08867 5.84131 0.0692711Z" fill="#237DF4" fill-rule="evenodd" transform="translate(632.159 52.993)" />
      <path d="M5.9574 0C15.7744 0.0231018 19.6074 4.6898 17.4574 14C12.3824 20.024 7.04938 20.357 1.4574 15C-1.47858 8.5578 0.0214233 3.5578 5.9574 0Z" fill="#1E7CF4" fill-rule="evenodd" transform="translate(727.043 53.062)" />
      <path d="M23 48.0183C20.893 47.0503 18.559 46.7163 16 47.0183C16 59.3513 16 71.6853 16 84.0183C10.667 84.0183 5.33299 84.0183 0 84.0183C0 56.0183 0 28.0183 0 0.018322C5.33299 0.018322 10.667 0.018322 16 0.018322C16 11.6853 16 23.3513 16 35.0183C19.307 35.4553 22.307 34.7883 25 33.0183C33.464 21.7223 42.464 10.8893 52 0.518322C57.696 -0.311581 63.363 -0.144878 69 1.01832C59.157 14.5373 48.491 27.3713 37 39.5183C39.46 40.9763 41.627 42.8093 43.5 45.0183C52.86 57.5453 62.027 70.2123 71 83.0183C64.582 84.4333 58.249 84.2673 52 82.5183C43.833 71.6853 35.667 60.8513 27.5 50.0183C26.17 48.9363 24.67 48.2693 23 48.0183Z" fill="#167BF4" fill-rule="evenodd" transform="translate(221 55.044)" />
      <path d="M0 0.0624008C10.339 -0.104095 20.672 0.0625992 31 0.562401C54.104 2.9427 61.938 15.1094 54.5 37.0624C51.155 42.7374 46.322 46.5704 40 48.5624C48.914 59.6424 57.247 71.1424 65 83.0624C58.582 84.4774 52.249 84.3114 46 82.5624C39.5 72.7294 33 62.8954 26.5 53.0624C23.106 52.1064 19.606 51.7734 16 52.0624C16 62.7294 16 73.3954 16 84.0624C10.667 84.0624 5.33301 84.0624 0 84.0624C0 56.0624 0 28.0624 0 0.0624008Z" fill="#137AF4" fill-rule="evenodd" transform="translate(459 55)" />
      <path d="M0 0.118019C6.42499 -0.251984 12.758 0.248016 19 1.61802C27.548 8.14402 28.215 15.477 21 23.618C14.356 26.684 7.35599 27.85 0 27.118C0 18.118 0 9.11802 0 0.118019Z" fill="#111828" fill-rule="evenodd" transform="translate(475 67.944)" />
      <path d="M3.97897 0C6.31197 0 8.64597 0 10.979 0C13.181 9.149 9.84695 12.649 0.978958 10.5C-0.989441 6.018 0.0105591 2.518 3.97897 0Z" fill="#111828" fill-rule="evenodd" transform="translate(74.021 69.062)" />
      <path d="M31.8282 26.6435C33.1612 26.6435 34.4951 26.6435 35.8282 26.6435C36.1302 24.0845 35.7961 21.7505 34.8282 19.6435C32.9431 13.0315 28.6102 10.5315 21.8282 12.1435C17.9911 13.8185 14.1581 15.3185 10.3282 16.6435C6.56815 15.9015 4.06815 13.5685 2.82816 9.64349C13.0322 0.183495 24.6992 -2.31651 37.8282 2.14349C43.8202 4.80249 47.6532 9.30249 49.3282 15.6435C49.8282 30.6395 49.9951 45.6395 49.8282 60.6435C46.4781 60.8085 43.1451 60.6415 39.8282 60.1435C38.8492 58.0065 37.5161 56.1725 35.8282 54.6435C27.0811 62.0115 17.4142 63.5115 6.82816 59.1435C-4.43185 45.6205 -1.76584 35.6205 14.8282 29.1435C20.3382 27.2535 26.0042 26.4205 31.8282 26.6435Z" fill="#177BF4" fill-rule="evenodd" transform="translate(297.172 78.419)" />
      <path d="M23.8009 0.140633C34.6379 -0.859367 42.4709 3.47363 47.3009 13.1406C48.7389 29.0836 49.2389 45.0836 48.8009 61.1406C45.4509 61.3056 42.1179 61.1386 38.8009 60.6406C37.7069 58.8606 36.7069 57.0266 35.8009 55.1406C26.2039 62.9426 15.8699 64.1096 4.8009 58.6406C-4.38708 43.6556 -0.387085 33.6556 16.8009 28.6406C22.7359 27.4016 28.7359 26.9016 34.8009 27.1406C36.2749 16.2096 31.6079 11.3766 20.8009 12.6406C17.2149 14.4076 13.5489 15.9076 9.8009 17.1406C5.2099 16.3876 3.04291 13.7206 3.3009 9.14063C9.3299 4.03664 16.1639 1.03664 23.8009 0.140633Z" fill="#157AF4" fill-rule="evenodd" transform="translate(530.199 77.921)" />
      <path d="M0 0C4.66699 0 9.33301 0 14 0C14 19.667 14 39.333 14 59C9.33301 59 4.66699 59 0 59C0 39.333 0 19.667 0 0Z" fill="#0B79F4" fill-rule="evenodd" transform="translate(427 80.062)" />
      <path d="M0 0C4.66699 0 9.33301 0 14 0C14 19.667 14 39.333 14 59C9.33301 59 4.66699 59 0 59C0 39.333 0 19.667 0 0Z" fill="#0B79F4" fill-rule="evenodd" transform="translate(634 80.062)" />
      <path d="M14 0C14.997 19.493 15.33 39.16 15 59C10 59 5 59 0 59C0 39.333 0 19.667 0 0C4.66699 0 9.33301 0 14 0Z" fill="#1F7CF4" fill-rule="evenodd" transform="translate(729 80.062)" />
      <path d="M8.99976 0.204498C15.0258 -0.619499 20.1927 1.0465 24.4998 5.20451C25.1667 13.8715 25.1667 22.5375 24.4998 31.2045C17.6917 39.5595 10.3588 40.2265 2.49976 33.2045C-0.833252 24.2045 -0.833252 15.2045 2.49976 6.20451C4.56274 3.9705 6.72876 1.9705 8.99976 0.204498Z" fill="#111828" fill-rule="evenodd" transform="translate(372 89.858)" />
      <path d="M2.98853 0.260063C8.29153 -0.763939 11.6245 1.23606 12.9885 6.26006C12.6125 8.14307 11.6125 9.64307 9.98853 10.7601C-0.312469 12.2851 -2.64647 8.78505 2.98853 0.260063Z" fill="#207EF4" fill-rule="evenodd" transform="translate(107.012 105.802)" />
      <path d="M2.89592 0.33033C9.72292 -0.995674 12.8899 1.67033 12.3959 8.33033C12.0879 9.13834 11.5879 9.80533 10.8959 10.3303C7.6969 11.6293 4.5309 11.6293 1.39592 10.3303C-0.875076 6.52733 -0.375076 3.19333 2.89592 0.33033Z" fill="#237FF4" fill-rule="evenodd" transform="translate(168.104 105.732)" />
      <path d="M23 0C34.9904 2.979 38.8238 10.312 34.5 22C32.6667 23.833 30.8333 25.667 29 27.5C31.0701 28.448 32.5701 29.948 33.5 32C35.4721 37.556 36.9721 43.222 38 49C33.6161 49.326 29.2828 48.992 25 48C23.9374 43.18 22.4374 38.514 20.5 34C17.9355 32.321 15.1021 31.654 12 32C12 37.667 12 43.333 12 49C8 49 4 49 0 49C0 32.667 0 16.333 0 0C7.6667 0 15.3333 0 23 0Z" fill="#157BF4" fill-rule="evenodd" transform="translate(0 108.062)" />
      <path d="M17 14C18.765 14.961 20.765 15.295 23 15C23 17.667 23 20.333 23 23C20.765 22.705 18.765 23.039 17 24C17 33 17 42 17 51C13 51 9 51 5 51C5 41.667 5 32.333 5 23C3.333 23 1.667 23 0 23C0 20.333 0 17.667 0 15C1.599 15.268 2.932 14.934 4 14C4.278 5.222 8.778 0.556 17.5 0C20.782 0.231003 23.949 0.897003 27 2C26.925 4.70599 26.592 7.373 26 10C23.313 9.836 20.646 10.003 18 10.5C17.163 11.511 16.83 12.678 17 14Z" fill="#1A7CF4" fill-rule="evenodd" transform="translate(78 106.062)" />
      <path d="M12 24C13.89 24.203 15.39 23.537 16.5 22C17.771 19.016 18.938 16.016 20 13C24.532 12.682 28.866 13.015 33 14C31.373 19.769 28.373 24.602 24 28.5C25.829 28.773 27.329 29.607 28.5 31C30.809 36.932 33.309 42.766 36 48.5C31.345 48.999 26.679 49.166 22 49C21.002 44.842 19.502 40.842 17.5 37C16.056 35.345 14.222 34.678 12 35C12 39.667 12 44.333 12 49C8 49 4 49 0 49C0 32.667 0 16.333 0 0C3.66701 0 7.33299 0 11 0C10.674 8.18401 11.008 16.184 12 24Z" fill="#137AF4" fill-rule="evenodd" transform="translate(128 108.062)" />
      <path d="M13.0504 0C15.7174 0 18.3835 0 21.0504 0C22.0764 9.813 17.5764 14.813 7.55045 15C1.15744 15.227 -1.17557 12.227 0.550446 6C1.76443 4.451 3.26443 3.285 5.05045 2.5C7.92944 1.95399 10.5964 1.121 13.0504 0Z" fill="#111828" fill-rule="evenodd" transform="translate(311.95 114.062)" />
      <path d="M12 0C15 0 18 0 21 0C21.246 12.087 15.246 16.921 3 14.5C-1 10.833 -1 7.16701 3 3.5C6.07098 2.20399 9.07098 1.03799 12 0Z" fill="#111828" fill-rule="evenodd" transform="translate(544 114.062)" />
      <path d="M7 0C10.754 1.328 11.9207 3.994 10.5 8C9.6841 9.323 8.5174 9.989 7 10C4.6667 10 2.3333 10 0 10C0 6.66701 0 3.33299 0 0C2.3333 0 4.6667 0 7 0Z" fill="#111828" fill-rule="evenodd" transform="translate(12 119.062)" />
      <path d="M0 0.984001C4.515 -0.328003 9.18201 -0.328003 14 0.984001C13.876 1.591 13.543 1.924 13 1.98399C8.866 0.998993 4.532 0.666 0 0.984001Z" fill="#8BBEFA" fill-rule="evenodd" transform="translate(148 120.078)" />
      <path d="M8.98388 0.0620804C13.6624 -0.10392 18.3291 0.0630875 22.9839 0.56208C27.1642 1.56407 29.9975 4.06407 31.4839 8.06207C31.9837 17.7231 32.1504 27.3901 31.9839 37.0621C27.7013 37.5731 23.7013 36.9061 19.9839 35.0621C15.5104 37.0301 10.8437 37.5301 5.98388 36.5621C-1.99463 29.9911 -1.99463 23.3241 5.98388 16.5621C10.5284 15.0201 15.1951 14.1861 19.9839 14.0621C20.1974 12.4181 19.8641 10.9181 18.9839 9.56207C14.9484 8.71208 11.1151 9.21208 7.48388 11.0621C2.34077 6.32609 2.84077 2.66009 8.98388 0.0620804Z" fill="#177BF4" fill-rule="evenodd" transform="translate(41.016 120)" />
      <path d="M12 0C12 12 12 24 12 36C8 36 4 36 0 36C0 24 0 12 0 0C4 0 8 0 12 0Z" fill="#0F7AF4" fill-rule="evenodd" transform="translate(107 121.062)" />
      <path d="M11 36C7.33299 36 3.66701 36 0 36C0 24 0 12 0 0C3.66701 0 7.33299 0 11 0C11 12 11 24 11 36Z" fill="#0C79F4" fill-rule="evenodd" transform="translate(169 121.062)" />
      <path d="M1.8607 0C3.8607 0 5.8607 0 7.8607 0C9.1063 6.162 6.773 8.662 0.860703 7.5C-0.556801 4.757 -0.223396 2.257 1.8607 0Z" fill="#111828" fill-rule="evenodd" transform="translate(53.139 141.062)" />
    </g>
  </g>
</svg>