<?xml version="1.0" encoding="utf-8"?>
<svg width="800" height="259" viewBox="0 0 800 259" fill="none" xmlns="http://www.w3.org/2000/svg">
  <g>
    <rect width="800" height="259" />
    <g transform="translate(30 18)">
      <path d="M205.049 46.0305C204.417 55.709 204.326 65.4803 204.777 75.3445C205.221 76.0627 205.856 76.4242 206.681 76.4302C211.341 79.9006 215.783 83.7006 220.006 87.83C222.03 90.4221 223.481 93.3177 224.357 96.5156C224.72 131.801 224.72 167.086 224.357 202.372C221.423 213.624 214.262 220.41 202.873 222.728C141.957 223.091 81.0406 223.091 20.1242 222.728C9.7537 220.067 3.04582 213.644 0 203.457C0.453066 168.082 0.725014 132.616 0.815845 97.0585C1.48429 94.8214 2.30014 92.65 3.26338 90.5443C3.75941 89.407 4.39414 88.3213 5.16702 87.2872C9.71345 83.1099 14.2463 78.9479 18.7644 74.8016C18.9455 64.8495 19.1272 54.8969 19.3083 44.9448C21.4214 35.4173 27.1323 29.1745 36.4411 26.2165C48.9507 26.0357 61.4603 25.8544 73.9699 25.6736C82.3095 18.7973 90.6496 11.9216 98.9892 5.04529C105.956 -0.856587 113.389 -1.58074 121.289 2.87389C131.054 10.267 140.663 17.8669 150.115 25.6736C162.444 25.8544 174.772 26.0357 187.1 26.2165C197.171 29.1207 203.154 35.7256 205.049 46.0305Z" fill="#334251" fill-rule="evenodd" transform="translate(0.548 0)" />
      <path d="M17.9486 0.00803471C20.4951 -0.0798998 22.8518 0.553602 25.0192 1.90801C30.0954 5.88874 35.1722 9.87 40.2483 13.8507C26.8321 14.2128 13.4163 14.2128 0 13.8507C5.78487 8.87984 11.7677 4.26561 17.9486 0.00803471Z" fill="#FCFCFD" fill-rule="evenodd" transform="translate(93.011 11.28)" />
      <path d="M183.293 23.3427C177.396 26.3013 171.413 29.1062 165.345 31.7569C160.209 33.621 155.132 33.4403 150.116 31.2141C144 28.7571 137.836 26.4044 131.623 24.157C122.217 23.2998 112.789 23.1191 103.34 23.6141C99.3548 24.7026 95.9098 26.6932 93.0064 29.5855C86.7826 36.3407 80.3467 42.9456 73.6981 49.3996C69.1968 53.9562 68.4713 59.0227 71.5225 64.5994C76.1174 69.0958 81.1027 69.548 86.4797 65.9565C91.1936 61.2516 95.9071 56.5473 100.621 51.8424C106.599 48.3231 112.22 48.8659 117.482 53.4709C131.908 66.3327 146.23 79.2704 160.45 92.2848C162.795 94.8068 165.152 97.3403 167.52 99.8847C179.812 90.6041 191.868 81.0135 203.689 71.1136C204.227 102.45 204.046 133.754 203.145 165.027C202.437 167.075 201.259 168.795 199.61 170.184C199.066 170.546 198.522 170.546 197.978 170.184C182.303 158.109 166.53 146.167 150.659 134.356C148.896 134.985 147.083 135.708 145.221 136.527C143.416 136.797 141.604 136.888 139.782 136.799C139.874 137.516 139.693 138.15 139.238 138.699C155.736 151.184 172.234 163.67 188.732 176.155C131.26 176.517 73.7889 176.517 16.317 176.155C31.0436 164.419 45.8191 152.747 60.6446 141.141C61.0074 140.779 61.0074 140.418 60.6446 140.056C57.9686 138.337 56.065 135.984 54.9337 132.999C38.2671 145.743 21.6782 158.59 5.16716 171.541C2.87518 169.434 1.24349 166.901 0.272089 163.941C-0.0906935 132.818 -0.0906935 101.694 0.272089 70.5707C10.1264 79.0511 20.3696 87.0126 31.0022 94.4562C33.552 92.2734 35.9087 89.9212 38.0729 87.3991C40.4921 85.1848 42.8489 82.9233 45.1436 80.6135C55.6059 76.8776 62.1327 80.4061 64.7238 91.1991C72.8616 91.5421 77.5756 95.7042 78.8651 103.685C87.4756 104.859 92.189 109.744 93.0064 118.342C98.2599 119.509 101.976 122.585 104.156 127.57C105.087 125.898 106.447 125.265 108.236 125.67C112.949 130.013 117.663 134.356 122.377 138.699C127.05 140.903 130.585 139.727 132.983 135.17C133.346 133.541 133.346 131.913 132.983 130.284C127.391 125.067 121.771 119.82 116.122 114.542C114.823 112.298 115.457 110.85 118.026 110.199C119.745 111.148 121.377 112.233 122.921 113.456C127.722 118.7 132.799 123.677 138.15 128.384C144.301 130.653 147.927 128.572 149.028 122.142C148.986 121.165 148.714 120.26 148.212 119.427C146.017 117.145 143.751 114.974 141.413 112.913C137.079 108.679 132.637 104.517 128.088 100.428C127.823 97.4462 129.183 96.4511 132.167 97.4418C138.675 103.032 145.021 108.823 151.203 114.813C157.79 118.222 161.96 116.322 163.713 109.113C162.571 105.12 160.396 101.773 157.186 99.0704C142.138 85.4991 127.091 71.9279 112.043 58.3566C109.592 56.829 107.054 56.6482 104.428 57.8137C99.6523 62.1039 95.12 66.6275 90.8309 71.385C82.4353 77.7483 74.3671 77.2956 66.6275 70.0279C61.6622 63.1896 61.2994 56.1325 65.5397 48.8567C68.0976 46.3949 70.5452 43.8614 72.8823 41.2568C73.3114 41.1032 73.6742 40.8317 73.9701 40.4425C68.6812 40.2759 63.4239 39.8237 58.1971 39.0854C45.1136 35.698 32.2412 31.536 19.5804 26.5998C19.5804 26.419 19.5804 26.2377 19.5804 26.057C19.4346 19.8842 19.6163 13.7315 20.1243 7.60004C21.7859 3.77295 24.6865 1.33012 28.8267 0.271557C77.2334 -0.090519 125.64 -0.090519 174.047 0.271557C177.779 1.09995 180.589 3.1807 182.477 6.51434C183.253 12.0807 183.525 17.6906 183.293 23.3427Z" fill="#FDFDFD" fill-rule="evenodd" transform="translate(10.882 36.259)" />
      <path d="M113.62 0.000545502C113.71 17.1915 113.62 34.382 113.348 51.5714C106.036 57.6996 98.5124 63.4897 90.776 68.9426C76.5563 55.9283 62.2339 42.9905 47.8081 30.1288C42.546 25.5238 36.9253 24.9809 30.9473 28.5002C26.2334 33.2051 21.52 37.9094 16.806 42.6143C11.4291 46.2058 6.44372 45.7536 1.84888 41.2572C-1.20237 35.6805 -0.476822 30.6141 4.02447 26.0574C10.6731 19.6034 17.109 12.9986 23.3328 6.24333C26.2361 3.35102 29.6812 1.36039 33.6668 0.271973C43.1154 -0.223103 52.5433 -0.0423431 61.9495 0.814823C68.1624 3.06223 74.3264 5.41494 80.4419 7.87188C85.4589 10.0981 90.5356 10.2789 95.6711 8.41473C101.74 5.76399 107.723 2.95909 113.62 0.000545502Z" fill="#2780CC" fill-rule="evenodd" transform="translate(80.556 59.601)" />
      <path d="M0.271948 0C12.9328 4.93613 25.8052 9.09818 38.8886 12.4856C40.2522 13.1951 42.065 13.6478 44.3276 13.8427C47.4539 13.9578 50.5362 14.2292 53.5738 14.657C51.2367 17.2616 48.7892 19.7951 46.2312 22.2569C41.991 29.5327 42.3538 36.5898 47.319 43.4281C55.0587 50.6957 63.1268 51.1485 71.5224 44.7852C75.8116 40.0276 80.3439 35.5041 85.1198 31.2139C87.7452 30.0484 90.2836 30.2292 92.7344 31.7568C107.782 45.328 122.83 58.8993 137.878 72.4706C141.087 75.1729 143.263 78.5207 144.405 82.5133C142.652 89.7218 138.482 91.6218 131.895 88.2132C125.712 82.2229 119.367 76.4323 112.859 70.842C109.875 69.8513 108.515 70.8464 108.779 73.8277C113.328 77.917 117.77 82.079 122.105 86.3133C123.68 88.7257 125.765 91.0779 128.36 93.3703C129.571 98.3803 127.668 101.275 122.649 102.056C121.488 102.048 120.4 101.776 119.385 101.242C114.187 96.3223 108.929 91.5273 103.612 86.8561C102.069 85.6336 100.437 84.5479 98.7172 83.599C96.149 84.2504 95.5142 85.6977 96.8136 87.9418C102.462 93.22 108.083 98.4671 113.674 103.684C114.037 105.313 114.037 106.942 113.674 108.57C111.277 113.127 107.742 114.303 103.068 112.099C98.3545 107.756 93.641 103.413 88.9271 99.0703C87.1382 98.6653 85.7785 99.2982 84.8479 100.97C82.6679 95.9852 78.9515 92.9089 73.698 91.7418C72.8805 83.1447 68.1671 78.259 59.5567 77.0848C58.2671 69.1044 53.5531 64.9423 45.4154 64.5992C42.8242 53.8063 36.2975 50.2778 25.8351 54.0136C23.5404 56.3235 21.1837 58.585 18.7644 60.7993C12.5754 55.8528 6.32062 50.9672 0 46.1423C0.11204 30.765 0.202873 15.3844 0.271948 0Z" fill="#2780CC" fill-rule="evenodd" transform="translate(30.191 62.859)" />
      <path d="M0 0C5.22684 0.738266 10.4842 1.19047 15.773 1.35712C15.4771 1.74635 15.1143 2.01778 14.6852 2.1714C11.6476 1.74364 8.56528 1.47221 5.43896 1.35712C3.17635 1.16224 1.36355 0.709511 0 0Z" fill="#1464C2" fill-rule="evenodd" transform="translate(69.079 75.344)" />
      <path d="M13.0535 68.9422C13.4995 69.8346 14.2229 70.4676 15.2291 70.8422C16.4583 70.9703 17.6386 71.2417 18.7645 71.6564C19.1288 74.5515 19.1288 77.447 18.7645 80.342C18.3565 80.6819 17.9051 80.9533 17.4047 81.1563C13.6354 81.9738 9.82819 82.1546 5.98285 81.6992C2.63788 80.3567 0.641846 77.9139 0 74.3707C0.451416 50.0341 0.723389 25.6059 0.815857 1.08583C1.08777 0.814407 1.35974 0.542984 1.63171 0.271561C4.89508 -0.0905228 8.15845 -0.0905228 11.4218 0.271561C11.6938 0.542984 11.9658 0.814407 12.2377 1.08583C12.3247 24.1049 12.5967 46.7238 13.0535 68.9422Z" fill="#364554" fill-rule="evenodd" transform="translate(573.815 83.487)" />
      <path d="M4.45447 0.489426C9.95325 -0.97139 13.853 0.837936 16.1483 5.91793C16.0721 13.2215 12.3573 16.2071 4.99835 14.875C0.755981 12.8224 -0.788696 9.47523 0.375244 4.83223C1.47937 3.09946 2.83911 1.65166 4.45447 0.489426Z" fill="#334251" fill-rule="evenodd" transform="translate(599.275 82.998)" />
      <path d="M12.5096 0.549393C12.8632 15.8187 13.2275 31.0185 13.5974 46.1488C21.212 38.4735 28.6416 30.6021 35.8972 22.5349C40.4278 22.1728 44.9639 22.1728 49.4946 22.5349C50.1744 23.7345 50.082 24.9104 49.2227 26.0634C41.7604 33.5998 34.5972 41.381 27.7387 49.406C34.8583 57.9559 41.7495 66.6415 48.4068 75.4628C49.4673 77.0718 50.5552 78.7004 51.6702 80.3485C46.786 80.8902 41.8909 81.0715 36.985 80.8913C29.0332 71.9017 21.3262 62.6732 13.8694 53.2059C13.6899 62.4344 13.5049 71.6628 13.3254 80.8913C13.1188 81.1932 12.8469 81.3739 12.5096 81.4342C8.97974 80.9847 5.35736 80.7132 1.63171 80.6199C1.28906 80.2128 1.01709 79.76 0.815857 79.2628C0.723389 53.4762 0.451416 27.7815 0 2.17795C0.00543213 1.35445 0.369873 0.72094 1.08777 0.277969C4.99298 -0.167717 8.80029 -0.0775986 12.5096 0.549393Z" fill="#354453" fill-rule="evenodd" transform="translate(626.029 82.938)" />
      <path d="M8.43039 0C13.9558 0.450562 19.5759 0.721985 25.2912 0.814278C26.5672 2.80273 27.655 4.52194 28.5546 5.97136C34.7784 22.7911 41.124 39.6194 47.5909 56.4565C54.4413 38.3877 61.24 20.2928 67.9871 2.1714C68.3721 1.69315 68.8257 1.33161 69.3468 1.0857C74.9701 0.995598 80.5902 1.0857 86.2076 1.35712C86.7373 2.80383 87.1001 2.89394 87.2954 1.62856C90.3173 27.3982 92.9459 53.2743 95.1819 79.2562C94.9099 79.5276 94.638 79.7991 94.366 80.0705C90.3777 80.4326 86.3887 80.4326 82.4003 80.0705C81.9472 79.6183 81.4937 79.1656 81.0406 78.7134C79.1657 59.1518 77.1713 39.6091 75.0577 20.0855C68.4037 37.7553 61.605 55.3078 54.6616 72.742C54.0627 73.4738 53.5189 74.2881 53.0299 75.1848C49.0415 75.5469 45.0526 75.5469 41.0642 75.1848C39.526 72.0265 38.076 68.8596 36.713 65.6849C35.7519 64.4407 35.208 62.9935 35.0813 61.3421C31.0945 49.496 26.8337 37.7341 22.2997 26.0568C21.8728 24.463 21.2386 23.3773 20.3961 22.7997C19.9012 21.9751 19.4481 21.0708 19.0364 20.0855C17.0093 39.6249 15.0154 59.1675 13.0535 78.7134C12.7816 79.3469 12.3285 79.7991 11.6938 80.0705C8.06763 80.4326 4.44199 80.4326 0.815857 80.0705C0.543884 79.7991 0.271942 79.5276 0 79.2562C1.58545 53.1646 3.76102 27.1078 6.52676 1.0857C6.97055 0.367508 7.60529 0.00596619 8.43039 0Z" fill="#344353" fill-rule="evenodd" transform="translate(317.912 84.573)" />
      <path d="M17.9486 1.62868C17.7533 2.89407 17.3905 2.80396 16.8608 1.35726C11.2434 1.08583 5.62335 0.995728 0 1.08583C0.0603943 0.750893 0.241486 0.479469 0.543884 0.271561C5.80173 -0.0905228 11.0591 -0.0905228 16.3169 0.271561C17.1012 0.476219 17.6451 0.928406 17.9486 1.62868Z" fill="#2B3647" fill-rule="evenodd" transform="translate(387.259 84.573)" />
      <path d="M0.0669861 0C2.58632 1.79032 4.94357 3.7804 7.13765 5.97136C4.96207 7.78069 2.78647 9.59054 0.610886 11.3999C0.0686188 7.61729 -0.112488 3.81733 0.0669861 0Z" fill="#F8F9F9" fill-rule="evenodd" transform="translate(205.53 88.916)" />
      <path d="M5.98286 0C6.61052 3.52147 6.70135 7.14065 6.25481 10.857C4.21901 9.16277 2.13425 7.53422 0 5.97135C1.83891 3.7739 3.83338 1.78326 5.98286 0Z" fill="#F9FAFA" fill-rule="evenodd" transform="translate(13.058 88.916)" />
      <path d="M55.3143 33.1446C57.2475 10.3759 46.8223 -0.661835 24.0411 0.0306625C19.1475 1.20358 14.6159 3.28526 10.4435 6.27323C1.41075 15.4578 -1.76369 26.4057 0.924515 39.116C2.92604 49.3515 8.81947 56.3177 18.6016 60.0157C30.561 63.6055 41.8922 62.2485 52.595 55.9444C52.8007 53.3462 52.4379 50.8128 51.5075 48.3445C51.1375 47.2516 50.4118 46.528 49.3322 46.1731C41.9948 49.7103 34.2884 50.8859 26.216 49.7013C18.5474 47.7055 14.5588 42.7292 14.2509 34.7733C27.4873 34.8638 40.7214 34.7733 53.9549 34.5018C54.408 34.0493 54.8611 33.5967 55.3143 33.1446ZM38.1817 13.8736C34.1268 11.706 29.7759 10.8911 25.1282 11.4308C19.276 13.837 15.83 18.1796 14.7939 24.459L43.0766 24.459C42.9604 20.2201 41.3291 16.6914 38.1817 13.8736Z" fill="#344352" fill-rule="evenodd" transform="translate(253.895 104.085)" />
      <path d="M60.8245 35.2934C61.4555 11.4041 49.7605 -0.35746 25.7423 0.00827026C21.5497 0.832222 17.5615 2.37006 13.7767 4.62233C2.12128 13.2709 -2.13788 24.7615 0.996643 39.0934C4.24945 51.2084 11.9547 58.7178 24.1101 61.6218C44.1748 63.6896 56.4111 54.9134 60.8245 35.2934ZM46.1406 27.1504C44.7801 16.1125 38.5233 10.8645 27.3746 11.4082C25.5521 12.0427 23.7407 12.8575 21.9355 13.8508C15.106 20.3045 12.8423 28.176 15.137 37.4648C16.2946 43.6886 19.8314 47.9414 25.7421 50.2218C33.2164 51.8702 39.1113 49.6086 43.4199 43.4362C45.7903 38.2601 46.6985 32.8316 46.1406 27.1504Z" fill="#344352" fill-rule="evenodd" transform="translate(679.151 104.107)" />
      <path d="M50.1936 14.6571C47.6589 5.61398 41.6776 0.728767 32.2444 0C27.8886 0.402451 23.4451 0.763901 18.9184 1.08588C18.338 1.07015 17.8867 0.889801 17.5591 0.542717C12.9798 1.24451 8.90228 3.05393 5.32092 5.97116C4.97485 8.94633 5.33813 11.8411 6.40778 14.6571C7.34985 15.2412 8.34503 15.3316 9.40234 14.9286C15.558 11.7333 22.0851 10.6476 28.9819 11.6713C35.1608 13.4165 37.8799 17.4881 37.1405 23.8854C31.3375 23.7947 25.5334 23.8854 19.7349 24.157C10.2563 25.3039 3.8158 30.2803 0.429047 39.0853C-1.47656 50.2208 2.96606 57.5492 13.7526 61.0707C22.8088 63.0348 30.5153 60.7726 36.868 54.285C37.0314 56.3182 37.6673 58.1274 38.772 59.7136C42.432 59.3429 46.1549 58.9806 49.9218 58.6279C50.1674 43.8629 50.2616 29.206 50.1936 14.6571ZM37.1406 33.6566C32.7962 33.3731 28.4448 33.192 24.0873 33.1139C21.3902 33.8234 18.8555 35.0006 16.4733 36.6424C12.0077 45.0082 14.546 49.8043 24.0873 51.028C34.4224 49.7597 38.7731 43.9689 37.1406 33.6566Z" fill="#344352" fill-rule="evenodd" transform="translate(510.567 104.658)" />
      <path d="M0 3.25969C0.407379 2.7 0.769592 2.06651 1.0878 1.35971C5.07239 1.08829 9.06076 0.998184 13.0535 1.08829C14.0923 1.88899 14.7265 2.97469 14.9572 4.34539C18.4985 17.5785 22.1246 30.7882 25.8351 43.9735C29.7718 30.1118 33.851 16.3592 38.0728 2.71684C38.0374 2.9546 38.1277 3.13592 38.3447 3.25969C38.5976 2.48287 39.0512 1.84991 39.7044 1.35971C43.6928 0.997635 47.6818 0.997635 51.6702 1.35971C52.046 1.93893 52.318 2.57244 52.486 3.25969C52.703 3.13592 52.7933 2.9546 52.758 2.71684C56.8192 16.2056 60.8076 29.7769 64.7237 43.4306C68.8029 29.3165 72.8821 15.2024 76.9614 1.08829C77.3693 0.748459 77.8207 0.477036 78.3211 0.27401C82.0795 -0.166245 85.7997 -0.0761261 89.471 0.545433C89.7702 2.39058 89.5852 4.19991 88.9271 5.97395C83.5752 23.1834 78.1362 40.3739 72.6102 57.5448C72.3546 58.3216 71.9031 58.9545 71.2505 59.4447C66.5349 59.8068 61.8231 59.8068 57.1092 59.4447C56.8372 59.1733 56.5652 58.9019 56.2933 58.6305C52.7329 44.956 48.9257 31.3848 44.8715 17.9167C41.0576 31.5156 37.1595 45.0869 33.1777 58.6305C32.8921 59.0061 32.5294 59.2775 32.0899 59.4447C27.3759 59.8068 22.6625 59.8068 17.9486 59.4447C16.64 57.1604 15.6425 54.7176 14.9572 52.1163C10.0197 35.796 5.0343 19.5105 0 3.25969Z" fill="#344352" fill-rule="evenodd" transform="translate(417.717 105.199)" />
      <path d="M0.578674 0.0337753C4.02698 -0.0563278 7.47534 0.0337753 10.9127 0.305206C11.1847 0.57663 11.4567 0.848053 11.7286 1.11948C11.821 19.6682 12.093 38.1251 12.5444 56.4902C12.2398 57.1905 11.6959 57.6427 10.9127 57.8474C7.37195 58.2925 3.92365 58.2019 0.578674 57.576C1.14978 57.2622 1.05731 56.9006 0.306763 56.4902C0.03479 37.8531 -0.0576782 19.2154 0.03479 0.57663C0.03479 0.214554 0.214233 0.0337753 0.578674 0.0337753Z" fill="#364554" fill-rule="evenodd" transform="translate(601.519 106.796)" />
      <path d="M14.1136 0.000198364C21.2626 -0.0296555 23.3473 3.22746 20.3684 9.77152C16.652 13.4808 12.935 17.1907 9.21852 20.9C5.5445 23.1707 2.55307 22.5378 0.244228 19C-0.211014 16.9399 -0.029892 14.9498 0.788124 13.0286C5.17302 8.56097 9.61448 4.21816 14.1136 0.000198364Z" fill="#257DCA" fill-rule="evenodd" transform="translate(46.263 122.572)" />
      <path d="M3.81168 0C2.84844 2.10572 2.0326 4.27712 1.36415 6.51421C1.27332 42.0715 1.00137 77.5381 0.548304 112.913C-0.0766349 77.6375 -0.167465 42.3521 0.276355 7.05706C0.898028 4.36832 2.07665 2.01614 3.81168 0Z" fill="#213343" fill-rule="evenodd" transform="translate(0 90.544)" />
      <path d="M15.2043 0.113541C21.9812 -0.62854 24.6099 2.26703 23.0908 8.79916C19.2308 13.7391 14.9699 18.3533 10.3092 22.6418C6.22617 25.6574 2.87196 25.0244 0.247116 20.7419C-0.300591 18.2388 0.0621948 15.8861 1.33491 13.6848C5.90092 9.03639 10.524 4.51282 15.2043 0.113541Z" fill="#287ECB" fill-rule="evenodd" transform="translate(58.77 134.945)" />
      <path d="M22.9366 2.62987C23.8895 5.34737 23.4365 7.88031 21.5769 10.2298C17.6625 14.318 13.5832 18.2086 9.3392 21.9011C5.6717 23.5247 2.68027 22.7105 0.364906 19.4582C-0.553734 16.2853 0.262115 13.7518 2.81244 11.8583C6.50986 8.44 10.136 4.91147 13.6904 1.27274C17.3127 -0.915497 20.3042 -0.281998 22.6647 3.17271C22.8817 3.04893 22.972 2.86763 22.9366 2.62987Z" fill="#287FCB" fill-rule="evenodd" transform="translate(72.794 148.714)" />
      <path d="M20.1242 3.32169C20.1595 3.55945 20.0692 3.74075 19.8522 3.86453C17.4917 0.409821 14.5003 -0.223679 10.8779 1.96455C7.32357 5.60329 3.69741 9.13181 0 12.5501C3.52336 7.85774 7.69341 3.78638 12.5096 0.335999C15.8948 -0.592285 18.4332 0.402771 20.1242 3.32169Z" fill="#1A6CC4" fill-rule="evenodd" transform="translate(75.606 148.022)" />
      <path d="M18.4925 0C20.8302 2.06067 23.096 4.23207 25.2912 6.51421C25.7932 7.34694 26.0652 8.25188 26.107 9.22847C25.0062 15.6591 21.38 17.7404 15.2291 15.4713C9.87825 10.7637 4.80153 5.78734 0 0.542847C5.31714 5.21407 10.575 10.0091 15.773 14.9284C16.7879 15.4631 17.8757 15.7345 19.0364 15.7427C24.0555 14.9621 25.9591 12.067 24.7473 7.05707C22.1524 4.76459 20.0676 2.41241 18.4925 0Z" fill="#186CC4" fill-rule="evenodd" transform="translate(133.803 149.172)" />
      <path d="M0 0C1.36301 3.17461 2.81302 6.34158 4.35117 9.49989C8.33957 9.86197 12.3285 9.86197 16.3169 9.49989C16.8058 8.60312 17.3497 7.78883 17.9486 7.05705C17.9219 8.46793 17.378 9.64429 16.3169 10.5856C12.3285 10.9477 8.33957 10.9477 4.35117 10.5856C2.23868 7.3589 0.788086 3.83037 0 0Z" fill="#283445" fill-rule="evenodd" transform="translate(354.625 150.258)" />
      <path d="M14.125 0.00115967C19.8909 -0.0639801 21.9756 2.65027 20.3798 8.14392C16.4616 12.9595 12.0196 17.2122 7.05437 20.9009C0.768005 21.662 -1.31673 19.0384 0.799561 13.0296C4.82384 8.1982 9.26531 3.85539 14.125 0.00115967Z" fill="#287ECB" fill-rule="evenodd" transform="translate(87.044 162.199)" />
      <path d="M11.4218 0C13.9291 1.4782 15.017 3.55894 14.6852 6.24278C9.9696 6.60486 5.25952 6.60486 0.543884 6.24278C0.239258 6.03488 0.0598145 5.76344 0 5.42851C4.90594 5.60872 9.80103 5.42741 14.6852 4.88565C13.5702 3.23756 12.4824 1.60901 11.4218 0Z" fill="#273446" fill-rule="evenodd" transform="translate(663.014 158.401)" />
      <path d="M6.52676 0C10.4939 2.96397 14.0293 6.40186 17.1327 10.3142C17.7321 18.2224 14.1968 21.2081 6.52676 19.2712C4.18801 17.4809 2.01243 15.4902 0 13.2998C2.31266 11.3559 4.21629 9.09384 5.71091 6.51421C6.33966 4.3873 6.61161 2.2159 6.52676 0Z" fill="#267ECB" fill-rule="evenodd" transform="translate(108.784 165.458)" />
    </g>
  </g>
</svg>