<?xml version="1.0" encoding="UTF-8"?>
<!DOCTYPE svg PUBLIC "-//W3C//DTD SVG 1.1//EN" "http://www.w3.org/Graphics/SVG/1.1/DTD/svg11.dtd">
<svg xmlns="http://www.w3.org/2000/svg" version="1.1" width="800px" height="259px" style="shape-rendering:geometricPrecision; text-rendering:geometricPrecision; image-rendering:optimizeQuality; fill-rule:evenodd; clip-rule:evenodd" xmlns:xlink="http://www.w3.org/1999/xlink">
<g><path style="opacity:1" fill="#fefefe" d="M -0.5,-0.5 C 266.167,-0.5 532.833,-0.5 799.5,-0.5C 799.5,85.8333 799.5,172.167 799.5,258.5C 532.833,258.5 266.167,258.5 -0.5,258.5C -0.5,172.167 -0.5,85.8333 -0.5,-0.5 Z"/></g>
<g><path style="opacity:1" fill="#267ff4" d="M 131.5,34.5 C 156.836,34.3334 182.169,34.5 207.5,35C 215.565,36.7315 220.732,41.5648 223,49.5C 223.667,102.5 223.667,155.5 223,208.5C 220.833,216 216,220.833 208.5,223C 183.167,223.667 157.833,223.667 132.5,223C 120.307,219.474 114.974,211.307 116.5,198.5C 119.5,198.5 122.5,198.5 125.5,198.5C 126.156,203.287 128.822,206.454 133.5,208C 158.167,208.667 182.833,208.667 207.5,208C 211.333,206.833 213.833,204.333 215,200.5C 215.667,150.833 215.667,101.167 215,51.5C 213.141,46.9743 209.974,43.8077 205.5,42C 181.5,41.3333 157.5,41.3333 133.5,42C 129.333,43.5 126.5,46.3333 125,50.5C 124.501,55.8229 124.334,61.1563 124.5,66.5C 121.833,66.5 119.167,66.5 116.5,66.5C 112.746,51.3261 117.746,40.6595 131.5,34.5 Z"/></g>
<g><path style="opacity:1" fill="#bfdbfb" d="M 60.5,56.5 C 66.979,55.5093 73.6457,55.176 80.5,55.5C 80.7373,56.791 80.404,57.791 79.5,58.5C 73.588,56.5437 67.2547,55.8771 60.5,56.5 Z"/></g>
<g><path style="opacity:1" fill="#1d7df4" d="M 191.5,54.5 C 196.485,53.7708 200.985,54.7708 205,57.5C 207.715,65.3063 204.882,69.6396 196.5,70.5C 186.804,67.6914 185.138,62.3581 191.5,54.5 Z"/></g>
<g><path style="opacity:1" fill="#117af4" d="M 24.5,56.5 C 30.1667,56.5 35.8333,56.5 41.5,56.5C 41.5,65.5 41.5,74.5 41.5,83.5C 45.0071,84.0065 48.1737,83.3398 51,81.5C 54.6229,73.3431 57.7896,65.0098 60.5,56.5C 67.2547,55.8771 73.588,56.5437 79.5,58.5C 76.0151,66.8075 72.5151,75.1409 69,83.5C 66.9824,85.3501 65.1491,87.3501 63.5,89.5C 65.856,92.0217 68.0227,94.6884 70,97.5C 73.941,107.163 77.7743,116.829 81.5,126.5C 74.8333,126.5 68.1667,126.5 61.5,126.5C 59.2433,118.647 56.4099,110.98 53,103.5C 51.871,101.859 50.371,100.859 48.5,100.5C 46.3926,99.5318 44.0593,99.1984 41.5,99.5C 41.5,108.167 41.5,116.833 41.5,125.5C 35.8333,125.5 30.1667,125.5 24.5,125.5C 24.5,102.5 24.5,79.5 24.5,56.5 Z"/></g>
<g><path style="opacity:1" fill="#117af4" d="M 163.5,56.5 C 169.167,56.5 174.833,56.5 180.5,56.5C 180.5,79.8333 180.5,103.167 180.5,126.5C 175.5,126.5 170.5,126.5 165.5,126.5C 164.765,123.072 163.098,122.906 160.5,126C 148.537,129.436 139.704,125.603 134,114.5C 128.719,100.293 131.219,87.7934 141.5,77C 148.517,73.4981 155.851,72.6648 163.5,74.5C 163.5,68.5 163.5,62.5 163.5,56.5 Z"/></g>
<g><path style="opacity:1" fill="#3e94f6" d="M 24.5,56.5 C 24.5,79.5 24.5,102.5 24.5,125.5C 30.1667,125.5 35.8333,125.5 41.5,125.5C 41.5,125.833 41.5,126.167 41.5,126.5C 35.5,126.5 29.5,126.5 23.5,126.5C 23.1691,102.994 23.5025,79.6607 24.5,56.5 Z"/></g>
<g><path style="opacity:1" fill="#157bf4" d="M 98.5,73.5 C 104.232,73.2832 109.899,73.7832 115.5,75C 120.757,77.2563 124.257,81.0896 126,86.5C 126.5,99.8292 126.667,113.163 126.5,126.5C 121.821,126.666 117.155,126.499 112.5,126C 112.002,124.842 111.169,124.009 110,123.5C 100.407,129.564 91.7407,128.564 84,120.5C 78.9177,109.075 82.0843,100.908 93.5,96C 98.7674,94.809 104.101,94.309 109.5,94.5C 109.595,87.7227 106.261,85.2227 99.5,87C 96.868,87.4494 94.368,88.2827 92,89.5C 89.1641,86.3098 87.4974,82.6432 87,78.5C 90.876,76.716 94.7093,75.0493 98.5,73.5 Z"/></g>
<g><path style="opacity:1" fill="#599ef6" d="M 188.5,74.5 C 188.5,91.5 188.5,108.5 188.5,125.5C 193.833,125.5 199.167,125.5 204.5,125.5C 204.5,108.5 204.5,91.5 204.5,74.5C 205.497,91.6586 205.83,108.992 205.5,126.5C 199.5,126.5 193.5,126.5 187.5,126.5C 187.17,108.992 187.503,91.6586 188.5,74.5 Z"/></g>
<g><path style="opacity:1" fill="#0c79f4" d="M 188.5,74.5 C 193.833,74.5 199.167,74.5 204.5,74.5C 204.5,91.5 204.5,108.5 204.5,125.5C 199.167,125.5 193.833,125.5 188.5,125.5C 188.5,108.5 188.5,91.5 188.5,74.5 Z"/></g>
<g><path style="opacity:1" fill="#117af4" d="M 421.5,87.5 C 426.167,87.5 430.833,87.5 435.5,87.5C 435.5,116.167 435.5,144.833 435.5,173.5C 431.818,173.665 428.152,173.499 424.5,173C 423.277,170.948 422.277,168.781 421.5,166.5C 412.382,174.41 402.382,175.91 391.5,171C 385.89,166.513 382.724,160.68 382,153.5C 378.462,139.15 381.962,126.983 392.5,117C 401.954,110.846 411.287,111.013 420.5,117.5C 421.499,107.522 421.832,97.5222 421.5,87.5 Z"/></g>
<g><path style="opacity:1" fill="#1c7cf4" d="M 703.5,87.5 C 703.5,103.833 703.5,120.167 703.5,136.5C 705.099,136.768 706.432,136.434 707.5,135.5C 708.496,135.586 709.329,135.252 710,134.5C 715.167,128 720.333,121.5 725.5,115C 731.082,113.263 736.749,113.096 742.5,114.5C 735.5,123.167 728.5,131.833 721.5,140.5C 729.224,150.892 736.557,161.558 743.5,172.5C 738.198,173.663 732.864,173.829 727.5,173C 721.296,164.761 715.463,156.261 710,147.5C 707.959,146.577 705.792,146.244 703.5,146.5C 703.5,155.5 703.5,164.5 703.5,173.5C 698.5,173.5 693.5,173.5 688.5,173.5C 688.5,144.833 688.5,116.167 688.5,87.5C 693.5,87.5 698.5,87.5 703.5,87.5 Z"/></g>
<g><path style="opacity:1" fill="#bcdafc" d="M 703.5,87.5 C 704.496,103.325 704.83,119.325 704.5,135.5C 705.5,135.5 706.5,135.5 707.5,135.5C 706.432,136.434 705.099,136.768 703.5,136.5C 703.5,120.167 703.5,103.833 703.5,87.5 Z"/></g>
<g><path style="opacity:1" fill="#f7fafe" d="M 153.5,87.5 C 156.777,87.2161 159.943,87.5495 163,88.5C 163.667,96.1667 163.667,103.833 163,111.5C 155.715,115.603 151.048,113.603 149,105.5C 147.325,98.6032 148.825,92.6032 153.5,87.5 Z"/></g>
<g><path style="opacity:1" fill="#237df4" d="M 455.5,87.5 C 464.987,86.8195 469.154,91.1528 468,100.5C 461.956,108.35 455.956,108.35 450,100.5C 448.831,94.8527 450.665,90.5194 455.5,87.5 Z"/></g>
<g><path style="opacity:1" fill="#157bf4" d="M 634.5,88.5 C 638.846,88.3343 643.179,88.501 647.5,89C 649.768,92.0709 650.101,95.4042 648.5,99C 637.709,98.6249 633.042,103.792 634.5,114.5C 639.5,114.5 644.5,114.5 649.5,114.5C 649.5,118.167 649.5,121.833 649.5,125.5C 644.5,125.5 639.5,125.5 634.5,125.5C 634.5,141.5 634.5,157.5 634.5,173.5C 629.5,173.5 624.5,173.5 619.5,173.5C 619.5,157.167 619.5,140.833 619.5,124.5C 617.08,124.708 614.747,124.374 612.5,123.5C 611.516,120.572 611.183,117.572 611.5,114.5C 614.167,114.5 616.833,114.5 619.5,114.5C 618.365,102.083 623.365,93.4161 634.5,88.5 Z"/></g>
<g><path style="opacity:1" fill="#237df4" d="M 662.5,87.5 C 671.987,86.8195 676.154,91.1528 675,100.5C 668.956,108.35 662.956,108.35 657,100.5C 655.831,94.8527 657.665,90.5194 662.5,87.5 Z"/></g>
<g><path style="opacity:1" fill="#1e7cf4" d="M 757.5,87.5 C 767.317,87.5231 771.15,92.1898 769,101.5C 763.925,107.524 758.592,107.857 753,102.5C 750.064,96.0578 751.564,91.0578 757.5,87.5 Z"/></g>
<g><path style="opacity:1" fill="#167bf4" d="M 268.5,137.5 C 266.393,136.532 264.059,136.198 261.5,136.5C 261.5,148.833 261.5,161.167 261.5,173.5C 256.167,173.5 250.833,173.5 245.5,173.5C 245.5,145.5 245.5,117.5 245.5,89.5C 250.833,89.5 256.167,89.5 261.5,89.5C 261.5,101.167 261.5,112.833 261.5,124.5C 264.807,124.937 267.807,124.27 270.5,122.5C 278.964,111.204 287.964,100.371 297.5,90C 303.196,89.1701 308.863,89.3368 314.5,90.5C 304.657,104.019 293.991,116.853 282.5,129C 284.96,130.458 287.127,132.291 289,134.5C 298.36,147.027 307.527,159.694 316.5,172.5C 310.082,173.915 303.749,173.749 297.5,172C 289.333,161.167 281.167,150.333 273,139.5C 271.67,138.418 270.17,137.751 268.5,137.5 Z"/></g>
<g><path style="opacity:1" fill="#137af4" d="M 483.5,89.5 C 493.839,89.3335 504.172,89.5002 514.5,90C 537.604,92.3803 545.438,104.547 538,126.5C 534.655,132.175 529.822,136.008 523.5,138C 532.414,149.08 540.747,160.58 548.5,172.5C 542.082,173.915 535.749,173.749 529.5,172C 523,162.167 516.5,152.333 510,142.5C 506.606,141.544 503.106,141.211 499.5,141.5C 499.5,152.167 499.5,162.833 499.5,173.5C 494.167,173.5 488.833,173.5 483.5,173.5C 483.5,145.5 483.5,117.5 483.5,89.5 Z"/></g>
<g><path style="opacity:1" fill="#b2d4fb" d="M 48.5,100.5 C 46.5,100.5 44.5,100.5 42.5,100.5C 42.8264,109.349 42.493,118.016 41.5,126.5C 41.5,126.167 41.5,125.833 41.5,125.5C 41.5,116.833 41.5,108.167 41.5,99.5C 44.0593,99.1984 46.3926,99.5318 48.5,100.5 Z"/></g>
<g><path style="opacity:1" fill="#fbfcfe" d="M 499.5,102.5 C 505.925,102.13 512.258,102.63 518.5,104C 527.048,110.526 527.715,117.859 520.5,126C 513.856,129.066 506.856,130.232 499.5,129.5C 499.5,120.5 499.5,111.5 499.5,102.5 Z"/></g>
<g><path style="opacity:1" fill="#f6fafe" d="M 102.5,103.5 C 104.833,103.5 107.167,103.5 109.5,103.5C 111.702,112.649 108.368,116.149 99.5,114C 97.5316,109.518 98.5316,106.018 102.5,103.5 Z"/></g>
<g><path style="opacity:1" fill="#177bf4" d="M 353.5,139.5 C 354.833,139.5 356.167,139.5 357.5,139.5C 357.802,136.941 357.468,134.607 356.5,132.5C 354.615,125.888 350.282,123.388 343.5,125C 339.663,126.675 335.83,128.175 332,129.5C 328.24,128.758 325.74,126.425 324.5,122.5C 334.704,113.04 346.371,110.54 359.5,115C 365.492,117.659 369.325,122.159 371,128.5C 371.5,143.496 371.667,158.496 371.5,173.5C 368.15,173.665 364.817,173.498 361.5,173C 360.521,170.863 359.188,169.029 357.5,167.5C 348.753,174.868 339.086,176.368 328.5,172C 317.24,158.477 319.906,148.477 336.5,142C 342.01,140.11 347.676,139.277 353.5,139.5 Z"/></g>
<g><path style="opacity:1" fill="#157af4" d="M 578.5,112.5 C 589.337,111.5 597.17,115.833 602,125.5C 603.438,141.443 603.938,157.443 603.5,173.5C 600.15,173.665 596.817,173.498 593.5,173C 592.406,171.22 591.406,169.386 590.5,167.5C 580.903,175.302 570.569,176.469 559.5,171C 550.312,156.015 554.312,146.015 571.5,141C 577.435,139.761 583.435,139.261 589.5,139.5C 590.974,128.569 586.307,123.736 575.5,125C 571.914,126.767 568.248,128.267 564.5,129.5C 559.909,128.747 557.742,126.08 558,121.5C 564.029,116.396 570.863,113.396 578.5,112.5 Z"/></g>
<g><path style="opacity:1" fill="#0b79f4" d="M 451.5,114.5 C 456.167,114.5 460.833,114.5 465.5,114.5C 465.5,134.167 465.5,153.833 465.5,173.5C 460.833,173.5 456.167,173.5 451.5,173.5C 451.5,153.833 451.5,134.167 451.5,114.5 Z"/></g>
<g><path style="opacity:1" fill="#3f94f6" d="M 451.5,114.5 C 456.305,113.513 461.305,113.179 466.5,113.5C 466.83,133.674 466.497,153.674 465.5,173.5C 465.5,153.833 465.5,134.167 465.5,114.5C 460.833,114.5 456.167,114.5 451.5,114.5 Z"/></g>
<g><path style="opacity:1" fill="#0b79f4" d="M 658.5,114.5 C 663.167,114.5 667.833,114.5 672.5,114.5C 672.5,134.167 672.5,153.833 672.5,173.5C 667.833,173.5 663.167,173.5 658.5,173.5C 658.5,153.833 658.5,134.167 658.5,114.5 Z"/></g>
<g><path style="opacity:1" fill="#3f94f6" d="M 658.5,114.5 C 663.305,113.513 668.305,113.179 673.5,113.5C 673.83,133.674 673.497,153.674 672.5,173.5C 672.5,153.833 672.5,134.167 672.5,114.5C 667.833,114.5 663.167,114.5 658.5,114.5 Z"/></g>
<g><path style="opacity:1" fill="#a8cffb" d="M 767.5,114.5 C 762.833,114.5 758.167,114.5 753.5,114.5C 753.5,134.167 753.5,153.833 753.5,173.5C 752.503,153.674 752.17,133.674 752.5,113.5C 757.695,113.179 762.695,113.513 767.5,114.5 Z"/></g>
<g><path style="opacity:1" fill="#1f7cf4" d="M 767.5,114.5 C 768.497,133.993 768.83,153.66 768.5,173.5C 763.5,173.5 758.5,173.5 753.5,173.5C 753.5,153.833 753.5,134.167 753.5,114.5C 758.167,114.5 762.833,114.5 767.5,114.5 Z"/></g>
<g><path style="opacity:1" fill="#f9fbfe" d="M 405.5,124.5 C 411.526,123.676 416.693,125.342 421,129.5C 421.667,138.167 421.667,146.833 421,155.5C 414.192,163.855 406.859,164.522 399,157.5C 395.667,148.5 395.667,139.5 399,130.5C 401.063,128.266 403.229,126.266 405.5,124.5 Z"/></g>
<g><path style="opacity:1" fill="#92c1fa" d="M 356.5,132.5 C 357.468,134.607 357.802,136.941 357.5,139.5C 356.167,139.5 354.833,139.5 353.5,139.5C 354.209,138.596 355.209,138.263 356.5,138.5C 356.5,136.5 356.5,134.5 356.5,132.5 Z"/></g>
<g><path style="opacity:1" fill="#8cbff9" d="M 268.5,137.5 C 266.5,137.5 264.5,137.5 262.5,137.5C 262.828,149.678 262.495,161.678 261.5,173.5C 261.5,161.167 261.5,148.833 261.5,136.5C 264.059,136.198 266.393,136.532 268.5,137.5 Z"/></g>
<g><path style="opacity:1" fill="#207ef4" d="M 134.5,140.5 C 139.803,139.476 143.136,141.476 144.5,146.5C 144.124,148.383 143.124,149.883 141.5,151C 131.199,152.525 128.865,149.025 134.5,140.5 Z"/></g>
<g><path style="opacity:1" fill="#237ff4" d="M 195.5,140.5 C 202.327,139.174 205.494,141.84 205,148.5C 204.692,149.308 204.192,149.975 203.5,150.5C 200.301,151.799 197.135,151.799 194,150.5C 191.729,146.697 192.229,143.363 195.5,140.5 Z"/></g>
<g><path style="opacity:1" fill="#59a2f6" d="M 47.5,142.5 C 39.8333,142.5 32.1667,142.5 24.5,142.5C 24.5,158.833 24.5,175.167 24.5,191.5C 23.5035,175.008 23.1702,158.342 23.5,141.5C 31.6841,141.174 39.6841,141.508 47.5,142.5 Z"/></g>
<g><path style="opacity:1" fill="#157bf4" d="M 47.5,142.5 C 59.4904,145.479 63.3238,152.812 59,164.5C 57.1667,166.333 55.3333,168.167 53.5,170C 55.5701,170.948 57.0701,172.448 58,174.5C 59.9721,180.056 61.4721,185.722 62.5,191.5C 58.1161,191.826 53.7828,191.492 49.5,190.5C 48.4374,185.68 46.9374,181.014 45,176.5C 42.4355,174.821 39.6021,174.154 36.5,174.5C 36.5,180.167 36.5,185.833 36.5,191.5C 32.5,191.5 28.5,191.5 24.5,191.5C 24.5,175.167 24.5,158.833 24.5,142.5C 32.1667,142.5 39.8333,142.5 47.5,142.5 Z"/></g>
<g><path style="opacity:1" fill="#1a7cf4" d="M 119.5,154.5 C 121.265,155.461 123.265,155.795 125.5,155.5C 125.5,158.167 125.5,160.833 125.5,163.5C 123.265,163.205 121.265,163.539 119.5,164.5C 119.5,173.5 119.5,182.5 119.5,191.5C 115.5,191.5 111.5,191.5 107.5,191.5C 107.5,182.167 107.5,172.833 107.5,163.5C 105.833,163.5 104.167,163.5 102.5,163.5C 102.5,160.833 102.5,158.167 102.5,155.5C 104.099,155.768 105.432,155.434 106.5,154.5C 106.778,145.722 111.278,141.056 120,140.5C 123.282,140.731 126.449,141.397 129.5,142.5C 129.425,145.206 129.092,147.873 128.5,150.5C 125.813,150.336 123.146,150.503 120.5,151C 119.663,152.011 119.33,153.178 119.5,154.5 Z"/></g>
<g><path style="opacity:1" fill="#55a0f7" d="M 164.5,166.5 C 163.508,158.684 163.174,150.684 163.5,142.5C 159.833,142.5 156.167,142.5 152.5,142.5C 152.5,158.833 152.5,175.167 152.5,191.5C 151.503,175.008 151.17,158.342 151.5,141.5C 155.833,141.5 160.167,141.5 164.5,141.5C 164.5,149.833 164.5,158.167 164.5,166.5 Z"/></g>
<g><path style="opacity:1" fill="#137af4" d="M 164.5,166.5 C 166.39,166.703 167.89,166.037 169,164.5C 170.271,161.516 171.438,158.516 172.5,155.5C 177.032,155.182 181.366,155.515 185.5,156.5C 183.873,162.269 180.873,167.102 176.5,171C 178.329,171.273 179.829,172.107 181,173.5C 183.309,179.432 185.809,185.266 188.5,191C 183.845,191.499 179.179,191.666 174.5,191.5C 173.502,187.342 172.002,183.342 170,179.5C 168.556,177.845 166.722,177.178 164.5,177.5C 164.5,182.167 164.5,186.833 164.5,191.5C 160.5,191.5 156.5,191.5 152.5,191.5C 152.5,175.167 152.5,158.833 152.5,142.5C 156.167,142.5 159.833,142.5 163.5,142.5C 163.174,150.684 163.508,158.684 164.5,166.5 Z"/></g>
<g><path style="opacity:1" fill="#f8fbfe" d="M 349.5,148.5 C 352.167,148.5 354.833,148.5 357.5,148.5C 358.526,158.313 354.026,163.313 344,163.5C 337.607,163.727 335.274,160.727 337,154.5C 338.214,152.951 339.714,151.785 341.5,151C 344.379,150.454 347.046,149.621 349.5,148.5 Z"/></g>
<g><path style="opacity:1" fill="#f8fbfe" d="M 580.5,148.5 C 583.5,148.5 586.5,148.5 589.5,148.5C 589.746,160.587 583.746,165.421 571.5,163C 567.5,159.333 567.5,155.667 571.5,152C 574.571,150.704 577.571,149.538 580.5,148.5 Z"/></g>
<g><path style="opacity:1" fill="#68a9f8" d="M 43.5,153.5 C 41.1667,153.5 38.8333,153.5 36.5,153.5C 36.5,156.833 36.5,160.167 36.5,163.5C 38.8333,163.5 41.1667,163.5 43.5,163.5C 41.0521,164.473 38.3854,164.806 35.5,164.5C 35.5,160.5 35.5,156.5 35.5,152.5C 38.3854,152.194 41.0521,152.527 43.5,153.5 Z"/></g>
<g><path style="opacity:1" fill="#fcfdfe" d="M 43.5,153.5 C 47.254,154.828 48.4207,157.494 47,161.5C 46.1841,162.823 45.0174,163.489 43.5,163.5C 41.1667,163.5 38.8333,163.5 36.5,163.5C 36.5,160.167 36.5,156.833 36.5,153.5C 38.8333,153.5 41.1667,153.5 43.5,153.5 Z"/></g>
<g><path style="opacity:1" fill="#8bbefa" d="M 172.5,155.5 C 177.015,154.188 181.682,154.188 186.5,155.5C 186.376,156.107 186.043,156.44 185.5,156.5C 181.366,155.515 177.032,155.182 172.5,155.5 Z"/></g>
<g><path style="opacity:1" fill="#177bf4" d="M 74.5,154.5 C 79.1785,154.334 83.8452,154.501 88.5,155C 92.6803,156.002 95.5136,158.502 97,162.5C 97.4998,172.161 97.6665,181.828 97.5,191.5C 93.2174,192.011 89.2174,191.344 85.5,189.5C 81.0265,191.468 76.3598,191.968 71.5,191C 63.5215,184.429 63.5215,177.762 71.5,171C 76.0445,169.458 80.7112,168.624 85.5,168.5C 85.7135,166.856 85.3802,165.356 84.5,164C 80.4645,163.15 76.6312,163.65 73,165.5C 67.8569,160.764 68.3569,157.098 74.5,154.5 Z"/></g>
<g><path style="opacity:1" fill="#abd0fa" d="M 106.5,154.5 C 105.432,155.434 104.099,155.768 102.5,155.5C 102.5,158.167 102.5,160.833 102.5,163.5C 102.5,163.833 102.5,164.167 102.5,164.5C 101.521,161.375 101.187,158.042 101.5,154.5C 103.167,154.5 104.833,154.5 106.5,154.5 Z"/></g>
<g><path style="opacity:1" fill="#5299f6" d="M 119.5,154.5 C 121.833,154.5 124.167,154.5 126.5,154.5C 126.5,157.833 126.5,161.167 126.5,164.5C 124.167,164.5 121.833,164.5 119.5,164.5C 121.265,163.539 123.265,163.205 125.5,163.5C 125.5,160.833 125.5,158.167 125.5,155.5C 123.265,155.795 121.265,155.461 119.5,154.5 Z"/></g>
<g><path style="opacity:1" fill="#b2d4fb" d="M 143.5,155.5 C 139.5,155.5 135.5,155.5 131.5,155.5C 131.5,167.5 131.5,179.5 131.5,191.5C 130.505,179.345 130.171,167.011 130.5,154.5C 135.032,154.182 139.366,154.515 143.5,155.5 Z"/></g>
<g><path style="opacity:1" fill="#0f7af4" d="M 143.5,155.5 C 143.5,167.5 143.5,179.5 143.5,191.5C 139.5,191.5 135.5,191.5 131.5,191.5C 131.5,179.5 131.5,167.5 131.5,155.5C 135.5,155.5 139.5,155.5 143.5,155.5 Z"/></g>
<g><path style="opacity:1" fill="#67abf8" d="M 204.5,191.5 C 204.5,179.5 204.5,167.5 204.5,155.5C 200.833,155.5 197.167,155.5 193.5,155.5C 193.5,167.5 193.5,179.5 193.5,191.5C 192.505,179.345 192.171,167.011 192.5,154.5C 196.833,154.5 201.167,154.5 205.5,154.5C 205.829,167.011 205.495,179.345 204.5,191.5 Z"/></g>
<g><path style="opacity:1" fill="#0c79f4" d="M 204.5,191.5 C 200.833,191.5 197.167,191.5 193.5,191.5C 193.5,179.5 193.5,167.5 193.5,155.5C 197.167,155.5 200.833,155.5 204.5,155.5C 204.5,167.5 204.5,179.5 204.5,191.5 Z"/></g>
<g><path style="opacity:1" fill="#509ef7" d="M 102.5,164.5 C 102.5,164.167 102.5,163.833 102.5,163.5C 104.167,163.5 105.833,163.5 107.5,163.5C 107.5,172.833 107.5,182.167 107.5,191.5C 106.507,182.682 106.173,173.682 106.5,164.5C 105.167,164.5 103.833,164.5 102.5,164.5 Z"/></g>
<g><path style="opacity:1" fill="#f2f7fe" d="M 79.5,175.5 C 81.5,175.5 83.5,175.5 85.5,175.5C 86.7456,181.662 84.4123,184.162 78.5,183C 77.0825,180.257 77.4159,177.757 79.5,175.5 Z"/></g>
</svg>
