<?xml version="1.0" encoding="utf-8"?>
<svg width="223" height="226" viewBox="0 0 223 226" fill="none" xmlns="http://www.w3.org/2000/svg">
  <g transform="translate(11 19)">
    <path d="M0 0C74.3334 0 148.667 0 223 0C223 75.3333 223 150.667 223 226C148.667 226 74.3334 226 0 226C0 150.667 0 75.3333 0 0Z" fill="#FEFEFE" fill-rule="evenodd" transform="translate(-11 -19)" />
    <path d="M16.2074 0.0624609C41.5433 -0.104111 66.8764 0.0624609 92.2074 0.562478C100.272 2.29398 105.439 7.12728 107.707 15.0625C108.374 68.0625 108.374 121.063 107.707 174.062C105.54 181.562 100.707 186.395 93.2074 188.562C67.8744 189.229 42.5402 189.229 17.2074 188.562C5.01431 185.036 -0.318497 176.87 1.20741 164.062C4.20737 164.062 7.20734 164.062 10.2074 164.062C10.8635 168.849 13.5294 172.016 18.2074 173.563C42.8744 174.229 67.5404 174.229 92.2074 173.563C96.0404 172.395 98.5401 169.895 99.7072 166.062C100.374 116.395 100.374 66.7295 99.7072 17.0625C97.8483 12.5368 94.6814 9.37017 90.2072 7.56249C66.2074 6.89578 42.2074 6.89578 18.2074 7.56249C14.0405 9.06247 11.2073 11.8958 9.70744 16.0625C9.20837 21.3854 9.04136 26.7188 9.20734 32.0625C6.54031 32.0625 3.87439 32.0625 1.20741 32.0625C-2.54662 16.8886 2.45334 6.22198 16.2074 0.0624609Z" fill="#267FF4" fill-rule="evenodd" transform="translate(92 0)" />
    <path d="M0 1.11978C6.47908 0.129059 13.1457 -0.204206 19.9999 0.119774C20.2374 1.41079 19.904 2.41077 18.9998 3.11978C13.0881 1.16348 6.75473 0.496866 0 1.11978Z" fill="#BFDBFB" fill-rule="evenodd" transform="translate(37 21)" />
    <path d="M3.78125 0.230619C8.76613 -0.498573 13.2662 0.50144 17.2811 3.23061C19.9962 11.0369 17.1633 15.3702 8.78119 16.2306C-0.914856 13.422 -2.58089 8.08871 3.78125 0.230619Z" fill="#1D7DF4" fill-rule="evenodd" transform="translate(165 20)" />
    <path d="M0 0.225655C5.66675 0.225655 11.3333 0.225655 17 0.225655C17 9.22569 17 18.2257 17 27.2257C20.5072 27.7322 23.6737 27.0655 26.5001 25.2257C30.1229 17.0688 33.2897 8.73547 36.0001 0.225655C42.7547 -0.397209 49.088 0.269356 55.0002 2.22564C51.5152 10.5332 48.0152 18.8666 44.5 27.2257C42.4824 29.0758 40.6492 31.0758 39.0001 33.2257C41.3561 35.7474 43.5228 38.4141 45.5001 41.2257C49.4409 50.8887 53.2743 60.5547 57 70.2257C50.3332 70.2257 43.6667 70.2257 37 70.2257C34.7433 62.3727 31.9099 54.7058 28.5001 47.2257C27.371 45.5847 25.871 44.5847 23.9999 44.2257C21.8926 43.2575 19.5592 42.9241 17 43.2257C17 51.8927 17 60.5587 17 69.2257C11.3333 69.2257 5.66675 69.2257 0 69.2257C0 46.2257 0 23.2257 0 0.225655Z" fill="#117AF4" fill-rule="evenodd" transform="translate(1 22)" />
    <path d="M32.1883 0C37.8553 0 43.5215 0 49.1882 0C49.1882 23.3333 49.1882 46.667 49.1882 70C44.1884 70 39.1884 70 34.1884 70C33.4533 66.572 31.7863 66.406 29.1883 69.5C17.2253 72.936 8.39218 69.103 2.68824 58.0001C-2.59283 43.793 -0.0928192 31.2934 10.1882 20.5C17.2052 16.9981 24.5394 16.1648 32.1883 18C32.1883 12 32.1883 5.99999 32.1883 0Z" fill="#117AF4" fill-rule="evenodd" transform="translate(108 23)" />
    <path d="M1.12359 0C1.12359 23 1.12359 46 1.12359 69C6.79039 69 12.4568 69 18.1236 69C18.1236 69.333 18.1236 69.6671 18.1236 70C12.1235 70 6.12358 70 0.123593 70C-0.20722 46.494 0.126067 23.1607 1.12359 0Z" fill="#3E94F6" fill-rule="evenodd" transform="translate(0 23)" />
    <path d="M16.8484 0.0491638C22.5805 -0.167587 28.2476 0.332382 33.8485 1.54919C39.1055 3.8055 42.6056 7.63882 44.3486 13.0492C44.8484 26.3784 45.0156 39.7122 44.8484 53.0492C40.1696 53.2152 35.5036 53.0482 30.8486 52.5492C30.3505 51.3912 29.5176 50.5582 28.3484 50.0492C18.7554 56.1132 10.0892 55.1132 2.34848 47.0492C-2.73386 35.6242 0.432819 27.4572 11.8485 22.5492C17.1159 21.3581 22.4495 20.8582 27.8486 21.0492C27.9436 14.2719 24.6096 11.7719 17.8486 13.5492C15.2165 13.9986 12.7165 14.8319 10.3485 16.0492C7.5126 12.859 5.84592 9.19239 5.34853 5.04919C9.22446 3.26516 13.0578 1.59845 16.8484 0.0491638Z" fill="#157BF4" fill-rule="evenodd" transform="translate(59 39)" />
    <path d="M1.1232 0C1.1232 17 1.1232 34 1.1232 51C6.45612 51 11.7902 51 17.1232 51C17.1232 34 17.1232 17 17.1232 0C18.1201 17.1586 18.4531 34.492 18.1232 52C12.1232 52 6.12318 52 0.123108 52C-0.206787 34.492 0.126251 17.1586 1.1232 0Z" fill="#599EF6" fill-rule="evenodd" transform="translate(164 41)" />
    <path d="M0 0C5.33302 0 10.667 0 16 0C16 17 16 34 16 51C10.667 51 5.33302 51 0 51C0 34 0 17 0 0Z" fill="#0C79F4" fill-rule="evenodd" transform="translate(165 41)" />
    <path d="M5.16264 0.0979424C8.4398 -0.185966 11.6057 0.147373 14.6627 1.09793C15.3298 8.76461 15.3298 16.4309 14.6627 24.0979C7.37779 28.2009 2.71066 26.2009 0.662689 18.0979C-1.01226 11.2011 0.487846 5.20109 5.16264 0.0979424Z" fill="#F7FAFE" fill-rule="evenodd" transform="translate(125 53)" />
    <path d="M7 1.10741C5.00009 1.10741 3.00002 1.10741 1.0001 1.10741C1.32643 9.95642 0.992981 18.6234 0 27.1074C0 26.7745 0 26.4404 0 26.1075C0 17.4405 0 8.77443 0 0.107422C2.55931 -0.19413 4.89256 0.139214 7 1.10741Z" fill="#B2D4FB" fill-rule="evenodd" transform="translate(19 65)" />
    <path d="M3.97895 0C6.31197 0 8.64594 0 10.979 0C13.1809 9.14899 9.84695 12.649 0.979034 10.5C-0.989449 6.01802 0.010498 2.51799 3.97895 0Z" fill="#F6FAFE" fill-rule="evenodd" transform="translate(76 69)" />
    <path d="M2.98844 0.260063C8.2916 -0.763931 11.6245 1.23611 12.9885 6.26006C12.6126 8.14309 11.6126 9.64301 9.98856 10.7601C-0.312462 12.285 -2.64642 8.78506 2.98844 0.260063Z" fill="#207EF4" fill-rule="evenodd" transform="translate(109 106)" />
    <path d="M2.89598 0.330353C9.72273 -0.995697 12.8895 1.67027 12.396 8.33035C12.0875 9.13837 11.5875 9.80527 10.8958 10.3304C7.69658 11.6293 4.53064 11.6293 1.39578 10.3304C-0.875046 6.52728 -0.375015 3.19328 2.89598 0.330353Z" fill="#237FF4" fill-rule="evenodd" transform="translate(170 106)" />
    <path d="M24.123 1.12082C16.4564 1.12082 8.78971 1.12082 1.12307 1.12082C1.12307 17.4538 1.12307 33.7879 1.12307 50.1208C0.126529 33.6289 -0.206731 16.9628 0.122967 0.120834C8.30725 -0.205238 16.3073 0.128822 24.123 1.12082Z" fill="#59A2F6" fill-rule="evenodd" transform="translate(0 107)" />
    <path d="M23.0001 0C34.9903 2.97899 38.8238 10.312 34.5 22C32.6667 23.833 30.8333 25.667 29 27.5C31.0701 28.4479 32.5702 29.948 33.5 32C35.4723 37.5561 36.972 43.222 38 49C33.6162 49.326 29.2829 48.992 25 48C23.9374 43.1799 22.4373 38.514 20.5 34C17.9355 32.321 15.1022 31.654 12 32C12 37.667 12 43.333 12 49C7.99998 49 4.00007 49 0 49C0 32.667 0 16.333 0 0C7.66661 0 15.3332 0 23.0001 0Z" fill="#157BF4" fill-rule="evenodd" transform="translate(1 109)" />
    <path d="M17 14C18.765 14.961 20.7651 15.295 22.9999 15C22.9999 17.667 22.9999 20.333 22.9999 23C20.7651 22.7051 18.765 23.039 17 24C17 33 17 42 17 51C13.0001 51 8.99998 51 5.00002 51C5.00002 41.667 5.00002 32.333 5.00002 23C3.33306 23 1.66704 23 0 23C0 20.333 0 17.667 0 15C1.59907 15.268 2.93211 14.934 4.00013 14C4.27798 5.22203 8.77802 0.556015 17.5 0C20.782 0.230972 23.9489 0.897049 27 2.00001C26.925 4.70602 26.592 7.37299 25.9999 10.0001C23.313 9.83598 20.646 10.003 18 10.4999C17.163 11.511 16.83 12.6781 17 14Z" fill="#1A7CF4" fill-rule="evenodd" transform="translate(79 107)" />
    <path d="M13.1232 25C12.1311 17.184 11.7971 9.18403 12.123 0.999939C8.45612 0.999939 4.79016 0.999939 1.12321 0.999939C1.12321 17.333 1.12321 33.667 1.12321 50C0.126205 33.5081 -0.206787 16.842 0.123108 0C4.45619 0 8.79016 0 13.1232 0C13.1232 8.33298 13.1232 16.667 13.1232 25Z" fill="#55A0F7" fill-rule="evenodd" transform="translate(128 107)" />
    <path d="M12 24C13.89 24.2031 15.39 23.537 16.4998 22C17.7708 19.016 18.938 16.016 19.9999 13C24.5318 12.682 28.8658 13.015 32.9998 14C31.3731 19.769 28.3729 24.602 24.0001 28.5C25.8289 28.773 27.3288 29.607 28.4998 31C30.8089 36.9321 33.3089 42.7659 36 48.5C31.3447 48.999 26.6789 49.166 22 49C21.0019 44.842 19.5019 40.842 17.5 37C16.056 35.345 14.2219 34.678 12 35C12 39.667 12 44.333 12 49C7.99995 49 4.00011 49 0 49C0 32.667 0 16.333 0 0C3.66695 0 7.33292 0 11 0C10.6739 8.18404 11.008 16.184 12 24Z" fill="#137AF4" fill-rule="evenodd" transform="translate(129 109)" />
    <path d="M8 1.10983C5.66675 1.10983 3.3333 1.10983 1.0001 1.10983C1.0001 4.44283 1.0001 7.77693 1.0001 11.11C3.3333 11.11 5.66675 11.11 8 11.11C5.55213 12.083 2.8854 12.416 0 12.1098C0 8.10992 0 4.10994 0 0.10994C2.8854 -0.196159 5.55213 0.136818 8 1.10983Z" fill="#68A9F8" fill-rule="evenodd" transform="translate(13 122)" />
    <path d="M7.00005 0C10.754 1.32795 11.9208 3.99393 10.4999 7.99998C9.68408 9.32292 8.5174 9.98906 7.00005 10C4.66671 10 2.33337 10 0 10C0 6.66694 0 3.33306 0 0C2.33337 0 4.66671 0 7.00005 0Z" fill="#FCFDFE" fill-rule="evenodd" transform="translate(13 119)" />
    <path d="M0 0.983948C4.51506 -0.32798 9.18205 -0.32798 14 0.983948C13.876 1.59093 13.543 1.92397 13.0001 1.98399C8.86618 0.999016 4.53203 0.666054 0 0.983948Z" fill="#8BBEFA" fill-rule="evenodd" transform="translate(149 121)" />
    <path d="M8.98392 0.0620651C13.6623 -0.10392 18.329 0.0631104 22.9839 0.561958C27.164 1.56413 29.9974 4.06399 31.4837 8.06204C31.9837 17.7231 32.1503 27.39 31.9839 37.0621C27.701 37.5731 23.7013 36.906 19.9839 35.0622C15.5105 37.0301 10.8437 37.53 5.98398 36.5622C-1.99464 29.991 -1.99464 23.3241 5.98398 16.562C10.5284 15.02 15.1951 14.1861 19.9839 14.062C20.1974 12.418 19.8641 10.918 18.9839 9.5621C14.9484 8.71196 11.1151 9.21208 7.48381 11.0621C2.34076 6.32597 2.84071 2.66013 8.98392 0.0620651Z" fill="#177BF4" fill-rule="evenodd" transform="translate(43 120)" />
    <path d="M5.11359 0C4.04587 0.933945 2.71269 1.26799 1.11381 0.999886C1.11381 3.66708 1.11381 6.33293 1.11381 9.00006C1.11381 9.33305 1.11381 9.66705 1.11381 10C0.134659 6.87498 -0.199448 3.54198 0.113586 0C1.78065 0 3.44677 0 5.11359 0Z" fill="#ABD0FA" fill-rule="evenodd" transform="translate(78 121)" />
    <path d="M0 0C2.33309 0 4.66691 0 7 0C7 3.33304 7 6.66694 7 10C4.66691 10 2.33309 10 0 10C1.76501 9.03894 3.76498 8.70496 5.99989 9.00006C5.99989 6.33293 5.99989 3.66708 5.99989 0.999886C3.76498 1.29503 1.76501 0.961052 0 0Z" fill="#5299F6" fill-rule="evenodd" transform="translate(97 121)" />
    <path d="M13.1225 1.11639C9.12244 1.11639 5.12262 1.11639 1.12258 1.11639C1.12258 13.1164 1.12258 25.1166 1.12258 37.1165C0.12751 24.9615 -0.206512 12.6275 0.122475 0.116432C4.65451 -0.201477 8.98848 0.131508 13.1225 1.11639Z" fill="#B2D4FB" fill-rule="evenodd" transform="translate(107 120)" />
    <path d="M12 0C12 12 12 24 12 36C7.99993 36 4.00008 36 0 36C0 24 0 12 0 0C4.00008 0 7.99993 0 12 0Z" fill="#0F7AF4" fill-rule="evenodd" transform="translate(109 121)" />
    <path d="M12.1225 37C12.1225 25.0001 12.1225 13.0001 12.1225 1.00008C8.45554 1.00008 4.78946 1.00008 1.12256 1.00008C1.12256 13.0001 1.12256 25.0001 1.12256 37C0.127457 24.845 -0.206573 12.511 0.122513 0C4.45538 0 8.78944 0 13.1224 0C13.4515 12.511 13.1174 24.845 12.1225 37Z" fill="#67ABF8" fill-rule="evenodd" transform="translate(169 121)" />
    <path d="M11 36C7.33299 36 3.66707 36 0 36C0 24 0 12 0 0C3.66707 0 7.33299 0 11 0C11 12 11 24 11 36Z" fill="#0C79F4" fill-rule="evenodd" transform="translate(171 121)" />
    <path d="M0 1.00003C0 0.666962 0 0.332993 0 0C1.66701 0 3.33299 0 5 0C5 9.33305 5 18.6669 5 28C4.00704 19.182 3.67297 10.1819 3.99989 1.00003C2.66709 1.00003 1.33307 1.00003 0 1.00003Z" fill="#509EF7" fill-rule="evenodd" transform="translate(79 129)" />
    <path d="M1.86068 0C3.86073 0 5.86063 0 7.86068 0C9.10631 6.16212 6.77306 8.66199 0.860634 7.5C-0.556789 4.75706 -0.223316 2.25706 1.86068 0Z" fill="#F2F7FE" fill-rule="evenodd" transform="translate(55 141)" />
  </g>
</svg>