<?xml version="1.0" encoding="utf-8"?>
<svg width="512" height="512" viewBox="0 0 512 512" fill="none" xmlns="http://www.w3.org/2000/svg">
  <g>
    <rect width="512" height="512" />
    <g transform="translate(37 360)">
      <path d="M11.7886 61.942C12.1913 62.7439 12.8447 63.3125 13.7534 63.6491C14.8635 63.7642 15.9294 64.0081 16.9461 64.3807C17.2752 66.9818 17.2752 69.5833 16.9461 72.1844C16.5777 72.4897 16.17 72.7336 15.7181 72.916C12.3141 73.6505 8.87579 73.8129 5.40311 73.4037C2.38226 72.1975 0.57962 70.0028 0 66.8193C0.407654 44.9539 0.653259 23.0059 0.736786 0.975582C0.982391 0.731716 1.22797 0.487851 1.47357 0.243985C4.42072 -0.0813283 7.36786 -0.0813283 10.315 0.243985C10.5606 0.487851 10.8062 0.731716 11.0518 0.975582C11.1304 21.6573 11.376 41.9797 11.7886 61.942Z" fill="#364554" fill-rule="evenodd" transform="translate(288.919 0.494)" />
      <path d="M4.02283 0.439729C8.98877 -0.872761 12.5106 0.752852 14.5834 5.31704C14.5146 11.879 11.1599 14.5615 4.51401 13.3646C0.682709 11.5205 -0.71225 8.51315 0.338898 4.34158C1.33603 2.78475 2.564 1.48396 4.02283 0.439729Z" fill="#334251" fill-rule="evenodd" transform="translate(311.912 0.054)" />
      <path d="M11.2974 0.493611C11.6167 14.2125 11.9458 27.869 12.2798 41.4631C19.1565 34.567 25.8662 27.4949 32.4186 20.2467C36.5103 19.9214 40.6068 19.9214 44.6985 20.2467C45.3124 21.3246 45.2289 22.3811 44.4529 23.417C37.7137 30.1882 31.2447 37.1793 25.0508 44.3895C31.4805 52.0712 37.7039 59.8749 43.7161 67.8006C44.6739 69.2462 45.6562 70.7094 46.6632 72.1901C42.2523 72.6769 37.8316 72.8398 33.401 72.6779C26.2198 64.601 19.2596 56.3096 12.5254 47.8036C12.3633 56.095 12.1963 64.3864 12.0342 72.6779C11.8475 72.9491 11.602 73.1115 11.2974 73.1656C8.10959 72.7618 4.83823 72.5179 1.47357 72.434C1.16412 72.0682 0.918518 71.6615 0.736786 71.2147C0.653259 48.0465 0.407654 24.9607 0 1.95681C0.00491333 1.21692 0.334045 0.647739 0.982391 0.249745C4.50916 -0.15069 7.94751 -0.0697185 11.2974 0.493611Z" fill="#354453" fill-rule="evenodd" transform="translate(336.073 0)" />
      <path d="M7.61347 0C12.6035 0.404811 17.679 0.648676 22.8404 0.731597C23.9928 2.51816 24.9751 4.0628 25.7876 5.36505C31.4083 20.4769 37.139 35.5966 42.9793 50.7241C49.1658 34.49 55.3057 18.2324 61.3989 1.95093C61.7467 1.52123 62.1564 1.19641 62.6269 0.975463C67.7054 0.894507 72.7808 0.975463 77.8539 1.21933C78.3323 2.51914 78.6599 2.60009 78.8362 1.46319C81.5653 24.6163 83.9392 47.865 85.9585 71.2088C85.7129 71.4527 85.4673 71.6965 85.2217 71.9404C81.6198 72.2657 78.0174 72.2657 74.4155 71.9404C74.0063 71.5341 73.5967 71.1274 73.1875 70.7211C71.4944 53.1457 69.6932 35.5873 67.7844 18.0461C61.7752 33.9217 55.6353 49.692 49.3647 65.356C48.8239 66.0135 48.3328 66.7451 47.8912 67.5508C44.2893 67.8761 40.6869 67.8761 37.085 67.5508C35.6959 64.7132 34.3864 61.8678 33.1554 59.0155C32.2875 57.8976 31.7963 56.5973 31.6819 55.1137C28.0814 44.4704 24.2334 33.9027 20.1389 23.4111C19.7533 21.9791 19.1805 21.0037 18.4197 20.4847C17.9727 19.7439 17.5635 18.9313 17.1917 18.0461C15.361 35.6015 13.5603 53.1598 11.7886 70.7211C11.543 71.2903 11.1338 71.6965 10.5606 71.9404C7.28585 72.2657 4.01156 72.2657 0.736786 71.9404C0.491192 71.6965 0.245594 71.4527 0 71.2088C1.43181 47.7665 3.39658 24.3554 5.8943 0.975463C6.2951 0.330195 6.86832 0.00535834 7.61347 0Z" fill="#344353" fill-rule="evenodd" transform="translate(57.813 1.469)" />
      <path d="M49.9542 29.7792C51.7001 9.32241 42.2851 -0.594625 21.7115 0.0275478C17.2921 1.08138 13.1996 2.95169 9.43153 5.63627C1.27405 13.8883 -1.59278 23.7246 0.834931 35.1443C2.64251 44.3406 7.96485 50.5994 16.799 53.922C27.5996 57.1472 37.8328 55.928 47.4984 50.264C47.6842 47.9297 47.3565 45.6534 46.5163 43.4358C46.1821 42.4538 45.5268 41.8038 44.5518 41.4848C37.9254 44.6629 30.9658 45.7191 23.6756 44.6548C16.7501 42.8616 13.148 38.3906 12.87 31.2425C24.8237 31.3239 36.7754 31.2425 48.7265 30.9986C49.1357 30.5921 49.5449 30.1854 49.9542 29.7792ZM34.4819 12.4649C30.8198 10.5174 26.8906 9.78525 22.6932 10.2701C17.4081 12.432 14.296 16.3337 13.3604 21.9755L38.9023 21.9755C38.7975 18.167 37.3242 14.9966 34.4819 12.4649Z" fill="#344352" fill-rule="evenodd" transform="translate(0 19)" />
      <path d="M54.9305 31.7098C55.5001 10.2461 44.9384 -0.321163 23.2479 0.00743294C19.4614 0.747725 15.8596 2.12942 12.4415 4.153C1.91568 11.9234 -1.93091 22.2473 0.900177 35.124C3.83786 46.0088 10.7961 52.7558 21.7738 55.3649C39.894 57.2228 50.9443 49.3377 54.9305 31.7098ZM41.6696 24.3937C40.4406 14.4765 34.79 9.7614 24.722 10.2499C23.0762 10.82 21.4402 11.552 19.8098 12.4445C13.6422 18.2428 11.5977 25.3151 13.6703 33.6607C14.7158 39.2527 17.9095 43.0736 23.2477 45.1225C29.9977 46.6035 35.3215 44.5715 39.2123 39.0258C41.353 34.3753 42.1732 29.4981 41.6696 24.3937Z" fill="#344352" fill-rule="evenodd" transform="translate(384.048 19.02)" />
      <path d="M45.3297 13.1689C43.0406 5.04395 37.639 0.654774 29.1199 0C25.1861 0.361582 21.1733 0.686335 17.0851 0.97563C16.561 0.961498 16.1535 0.79945 15.8577 0.487606C11.7221 1.11815 8.03969 2.74384 4.80539 5.36487C4.49274 8.03795 4.82085 10.6388 5.78685 13.1689C6.63763 13.6936 7.53645 13.7749 8.4913 13.4128C14.0505 10.5419 19.9451 9.56646 26.1735 10.4862C31.7536 12.0542 34.2093 15.7124 33.5416 21.4602C28.3009 21.3787 23.0591 21.4602 17.8226 21.7041C9.26242 22.7346 3.44612 27.2057 0.387451 35.1167C-1.33348 45.1215 2.67867 51.7058 12.4199 54.8698C20.5986 56.6344 27.5582 54.602 33.2955 48.7731C33.443 50.5998 34.0173 52.2253 35.0149 53.6505C38.3203 53.3174 41.6825 52.9919 45.0842 52.675C45.3061 39.4092 45.3912 26.2405 45.3297 13.1689ZM33.5417 30.2393C29.6181 29.9845 25.6885 29.8218 21.7533 29.7516C19.3174 30.3891 17.0285 31.4468 14.877 32.9219C10.8441 40.4382 13.1366 44.7473 21.7533 45.8468C31.0869 44.7073 35.0159 39.5045 33.5417 30.2393Z" fill="#344352" fill-rule="evenodd" transform="translate(231.8 19.515)" />
      <path d="M0 2.92871C0.36792 2.42586 0.695023 1.85668 0.982376 1.22165C4.58084 0.977785 8.18275 0.89683 11.7886 0.977785C12.7268 1.69719 13.2995 2.67266 13.5078 3.90417C16.7059 15.7936 19.9807 27.6621 23.3316 39.5086C26.8868 27.0544 30.5708 14.6982 34.3834 2.44098C34.3515 2.6546 34.433 2.81751 34.629 2.92871C34.8574 2.23077 35.2671 1.66208 35.857 1.22165C39.4589 0.896338 43.0613 0.896338 46.6632 1.22165C47.0026 1.74205 47.2482 2.31125 47.4 2.92871C47.596 2.81751 47.6775 2.6546 47.6456 2.44098C51.3133 14.5601 54.9152 26.7534 58.4518 39.0208C62.1358 26.3398 65.8197 13.6588 69.5036 0.977785C69.872 0.672462 70.2797 0.428596 70.7316 0.246187C74.1258 -0.149364 77.4855 -0.0683937 80.801 0.490053C81.0712 2.14785 80.9042 3.77346 80.3098 5.36737C75.4765 20.8294 70.5646 36.2744 65.5741 51.7019C65.3432 52.3998 64.9355 52.9685 64.3461 53.4089C60.0875 53.7342 55.8323 53.7342 51.5751 53.4089C51.3295 53.1651 51.0839 52.9212 50.8383 52.6773C47.623 40.3914 44.1846 28.1981 40.5233 16.0975C37.0791 28.3156 33.5587 40.5089 29.9627 52.6773C29.7048 53.0149 29.3772 53.2587 28.9803 53.4089C24.7232 53.7342 20.4665 53.7342 16.2093 53.4089C15.0275 51.3565 14.1267 49.1618 13.5078 46.8246C9.04874 32.1614 4.54646 17.5294 0 2.92871Z" fill="#344352" fill-rule="evenodd" transform="translate(147.947 20.001)" />
      <path d="M0.522614 0.0303497C3.63675 -0.0506077 6.75098 0.0303497 9.85529 0.274216C10.1009 0.518082 10.3465 0.761946 10.5921 1.00581C10.6756 17.6711 10.9212 34.254 11.3289 50.7544C11.0538 51.3836 10.5626 51.7899 9.85529 51.9737C6.65759 52.3737 3.54346 52.2922 0.522614 51.7299C1.03839 51.448 0.954865 51.1231 0.277008 50.7544C0.0314331 34.0096 -0.0520935 17.2644 0.0314331 0.518082C0.0314331 0.192768 0.193481 0.0303497 0.522614 0.0303497Z" fill="#364554" fill-rule="evenodd" transform="translate(313.938 21.436)" />
    </g>
    <g transform="translate(114 38)">
      <path d="M259.244 58.209C258.445 70.4482 258.331 82.8047 258.901 95.2786C259.462 96.1869 260.264 96.6441 261.307 96.6516C267.2 101.04 272.816 105.846 278.155 111.068C280.714 114.345 282.547 118.007 283.656 122.051C284.115 166.672 284.115 211.293 283.656 255.914C279.946 270.144 270.892 278.725 256.494 281.657C179.477 282.114 102.46 282.114 25.4431 281.657C12.3316 278.292 3.85084 270.168 0 257.287C0.572813 212.553 0.916639 167.702 1.03148 122.738C1.8766 119.909 2.90807 117.163 4.12591 114.5C4.75305 113.062 5.55553 111.689 6.53268 110.381C12.2808 105.099 18.0116 99.8355 23.724 94.5922C23.9529 82.007 24.1826 69.4212 24.4116 56.8361C27.0831 44.7877 34.3035 36.8933 46.0726 33.1527C61.8886 32.9241 77.7046 32.6948 93.5205 32.4662C104.064 23.7706 114.609 15.0757 125.152 6.38014C133.961 -1.08322 143.359 -1.99896 153.346 3.63424C165.692 12.9833 177.841 22.594 189.792 32.4662C205.379 32.6948 220.965 32.9241 236.552 33.1527C249.284 36.8253 256.849 45.1776 259.244 58.209Z" fill="#334251" fill-rule="evenodd" />
      <path d="M22.6925 0.0101604C25.9121 -0.10104 28.8917 0.700071 31.6319 2.41282C38.0498 7.44675 44.4683 12.4813 50.8862 17.5153C33.9239 17.9731 16.9623 17.9731 0 17.5153C7.31384 11.2292 14.878 5.39418 22.6925 0.0101604Z" fill="#FCFCFD" fill-rule="evenodd" transform="translate(116.316 13.91)" />
      <path d="M231.738 29.5186C224.283 33.2599 216.719 36.8069 209.046 40.1589C202.553 42.5163 196.135 42.2877 189.792 39.4725C182.06 36.3655 174.267 33.3903 166.412 30.5483C154.519 29.4644 142.6 29.2358 130.654 29.8618C125.615 31.2382 121.259 33.7555 117.588 37.4131C109.72 45.9555 101.583 54.3079 93.1769 62.4694C87.4859 68.2317 86.5686 74.6385 90.4263 81.6907C96.2355 87.3767 102.539 87.9486 109.337 83.4069C115.297 77.4572 121.256 71.5082 127.216 65.5585C134.774 61.1081 141.88 61.7946 148.533 67.618C166.771 83.8826 184.879 100.243 202.857 116.701C205.822 119.89 208.802 123.094 211.797 126.312C227.337 114.576 242.58 102.448 257.525 89.9284C258.205 129.555 257.976 169.141 256.838 208.689C255.942 211.279 254.452 213.453 252.368 215.21C251.68 215.668 250.993 215.668 250.305 215.21C230.487 199.941 210.545 184.838 190.479 169.903C188.25 170.698 185.958 171.613 183.603 172.649C181.322 172.99 179.03 173.105 176.726 172.992C176.843 173.899 176.614 174.7 176.039 175.395C196.897 191.183 217.756 206.972 238.615 222.761C165.953 223.219 93.2917 223.219 20.6297 222.761C39.2485 207.92 57.9293 193.16 76.6732 178.484C77.1319 178.026 77.1319 177.569 76.6732 177.111C73.29 174.937 70.8832 171.962 69.4529 168.187C48.3812 184.302 27.4079 200.548 6.53286 216.926C3.6351 214.261 1.57215 211.058 0.344004 207.316C-0.114664 167.958 -0.114664 128.6 0.344004 89.2419C12.8029 99.966 25.7534 110.034 39.1963 119.447C42.42 116.686 45.3996 113.712 48.1357 110.523C51.1944 107.723 54.174 104.863 57.0752 101.942C70.3028 97.2174 78.5546 101.679 81.8306 115.328C92.1193 115.762 98.0791 121.025 99.7095 131.117C110.596 132.602 116.555 138.78 117.588 149.652C124.23 151.128 128.929 155.018 131.685 161.322C132.862 159.207 134.581 158.407 136.843 158.919C142.803 164.411 148.762 169.903 154.722 175.395C160.63 178.182 165.1 176.695 168.131 170.932C168.589 168.873 168.589 166.814 168.131 164.754C161.061 158.156 153.956 151.521 146.814 144.846C145.171 142.008 145.973 140.178 149.22 139.355C151.395 140.555 153.458 141.927 155.409 143.473C161.48 150.105 167.898 156.398 174.663 162.351C182.44 165.221 187.025 162.589 188.416 154.457C188.364 153.222 188.02 152.078 187.385 151.025C184.61 148.139 181.745 145.393 178.789 142.787C173.31 137.432 167.693 132.169 161.942 126.998C161.608 123.228 163.327 121.97 167.099 123.222C175.328 130.292 183.351 137.614 191.167 145.19C199.495 149.5 204.767 147.097 206.983 137.982C205.54 132.933 202.789 128.699 198.731 125.282C179.706 108.12 160.681 90.9581 141.656 73.7962C138.558 71.8645 135.348 71.6359 132.029 73.1097C125.991 78.535 120.261 84.2554 114.838 90.2716C104.223 98.3185 94.0227 97.746 84.2374 88.5554C77.9598 79.9079 77.5012 70.9837 82.8621 61.7829C86.0961 58.6697 89.1906 55.466 92.1454 52.1723C92.688 51.978 93.1466 51.6348 93.5207 51.1425C86.834 50.9318 80.1871 50.36 73.5788 49.4264C57.0374 45.1428 40.7627 39.8795 24.7556 33.6374C24.7556 33.4088 24.7556 33.1796 24.7556 32.951C24.5713 25.1451 24.801 17.3646 25.4433 9.61082C27.544 4.77118 31.2113 1.68204 36.4457 0.343407C97.6466 -0.114468 158.848 -0.114468 220.048 0.343407C224.767 1.39096 228.32 4.02223 230.707 8.23787C231.688 15.277 232.031 22.371 231.738 29.5186Z" fill="#FDFDFD" fill-rule="evenodd" transform="translate(12.643 45.525)" />
      <path d="M143.65 0.000694275C143.765 21.74 143.65 43.4786 143.306 65.2158C134.062 72.9654 124.55 80.2874 114.768 87.183C96.7905 70.7254 78.6826 54.3647 60.4441 38.1001C53.791 32.2767 46.6848 31.5902 39.1269 36.0406C33.167 41.9903 27.2078 47.9393 21.248 53.889C14.4498 58.4307 8.14682 57.8588 2.33755 52.1728C-1.52016 45.1206 -0.602852 38.7138 5.08815 32.9515C13.494 24.79 21.631 16.4376 29.4998 7.89515C33.1705 4.23761 37.526 1.72031 42.5651 0.343925C54.511 -0.282127 66.4307 -0.0535507 78.323 1.0304C86.178 3.87242 93.9712 6.84759 101.703 9.95457C108.046 12.7698 114.465 12.9984 120.957 10.6411C128.63 7.289 136.194 3.74199 143.65 0.000694275Z" fill="#2780CC" fill-rule="evenodd" transform="translate(101.144 75.874)" />
      <path d="M0.343826 0C16.351 6.24211 32.6256 11.5053 49.167 15.7889C50.891 16.6861 53.1829 17.2587 56.0436 17.5051C59.9962 17.6507 63.8931 17.9939 67.7336 18.5348C64.7788 21.8285 61.6843 25.0323 58.4503 28.1455C53.0894 37.3463 53.5481 46.2705 59.8256 54.918C69.6109 64.1085 79.8115 64.681 90.4261 56.6342C95.8489 50.6179 101.579 44.8975 107.617 39.4723C110.937 37.9984 114.146 38.2271 117.244 40.1588C136.27 57.3207 155.294 74.4825 174.32 91.6444C178.377 95.0617 181.128 99.2952 182.571 104.344C180.355 113.46 175.083 115.863 166.755 111.552C158.939 103.977 150.916 96.6543 142.688 89.585C138.915 88.3321 137.196 89.5905 137.53 93.3606C143.282 98.5318 148.898 103.795 154.378 109.15C156.369 112.2 159.005 115.175 162.286 118.074C163.818 124.409 161.411 128.07 155.065 129.057C153.598 129.047 152.223 128.704 150.939 128.028C144.367 121.807 137.72 115.743 130.997 109.836C129.046 108.29 126.983 106.917 124.809 105.717C121.562 106.541 120.759 108.371 122.402 111.209C129.544 117.884 136.649 124.519 143.719 131.117C144.178 133.176 144.178 135.236 143.719 137.295C140.688 143.058 136.218 144.545 130.31 141.757C124.35 136.265 118.391 130.773 112.431 125.282C110.169 124.77 108.45 125.57 107.274 127.684C104.517 121.38 99.8187 117.49 93.1767 116.014C92.1432 105.143 86.184 98.9643 75.2978 97.4795C73.6673 87.3876 67.7075 82.1244 57.4188 81.6905C54.1429 68.042 45.8911 63.5799 32.6634 68.3043C29.7622 71.2252 26.7826 74.0851 23.724 76.8852C15.8992 70.63 7.99119 64.4518 0 58.3504C0.141651 38.9046 0.256496 19.4547 0.343826 0Z" fill="#2780CC" fill-rule="evenodd" transform="translate(37.929 79.668)" />
      <path d="M0.0846863 0C3.2699 2.264 6.25018 4.7806 9.02417 7.55122C6.27356 9.83925 3.52295 12.1279 0.772339 14.416C0.0867615 9.63262 -0.142212 4.8273 0.0846863 0Z" fill="#F8F9F9" fill-rule="evenodd" transform="translate(259.182 112.547)" />
      <path d="M7.56416 0C8.35771 4.45316 8.47255 9.02988 7.90799 13.7295C5.33411 11.587 2.69834 9.52758 0 7.55122C2.32495 4.77237 4.84657 2.25507 7.56416 0Z" fill="#F9FAFA" fill-rule="evenodd" transform="translate(15.172 112.547)" />
      <path d="M17.8439 0.000244141C26.8824 -0.0375061 29.5181 4.08136 25.7519 12.3568C21.0532 17.0475 16.3537 21.7389 11.655 26.4296C7.00994 29.3011 3.22786 28.5007 0.308781 24.0269C-0.266788 21.4217 -0.037796 18.9051 0.996429 16.4757C6.54027 10.826 12.1556 5.33418 17.8439 0.000244141Z" fill="#257DCA" fill-rule="evenodd" transform="translate(58.158 155.543)" />
      <path d="M19.2228 0.143585C27.791 -0.79483 31.1144 2.86682 29.1938 11.1272C24.3135 17.3741 18.9265 23.2091 13.034 28.6323C7.87177 32.4457 3.63103 31.6452 0.312431 26.2296C-0.380035 23.0643 0.0786362 20.0891 1.68774 17.3055C7.46056 11.4272 13.3056 5.70679 19.2228 0.143585Z" fill="#287ECB" fill-rule="evenodd" transform="translate(73.33 170.718)" />
      <path d="M28.9989 3.32565C30.2036 6.76215 29.6308 9.96524 27.2797 12.9363C22.3307 18.1062 17.1733 23.0261 11.8076 27.6955C7.17075 29.7488 3.38869 28.7191 0.461357 24.6064C-0.700089 20.594 0.33139 17.3901 3.55579 14.9957C8.23044 10.673 12.815 6.21092 17.3088 1.60947C21.8886 -1.15771 25.6706 -0.356598 28.655 4.01213C28.9294 3.85561 29.0436 3.62633 28.9989 3.32565Z" fill="#287FCB" fill-rule="evenodd" transform="translate(91.03 188.422)" />
      <path d="M25.4431 4.20052C25.4878 4.50117 25.3736 4.73045 25.0993 4.88698C22.1149 0.51825 18.3328 -0.282867 13.753 2.48433C9.25922 7.08577 4.67465 11.5479 0 15.8706C4.4546 9.93671 9.72681 4.78815 15.816 0.424896C20.0959 -0.748993 23.3052 0.509323 25.4431 4.20052Z" fill="#1A6CC4" fill-rule="evenodd" transform="translate(94.823 187.157)" />
      <path d="M23.3801 0C26.3357 2.60588 29.2004 5.35178 31.9758 8.2377C32.6105 9.29076 32.9543 10.4351 33.0072 11.6701C31.6154 19.8021 27.0309 22.434 19.2542 19.5645C12.4891 13.6114 6.07059 7.31851 0 0.686478C6.72247 6.59358 13.37 12.6572 19.9419 18.8781C21.225 19.5542 22.6003 19.8975 24.0678 19.9078C30.4134 18.9206 32.8202 15.2597 31.2881 8.92418C28.0073 6.02518 25.3716 3.05067 23.3801 0Z" fill="#186CC4" fill-rule="evenodd" transform="translate(168.153 188.422)" />
      <path d="M17.8583 0.00146484C25.1481 -0.0809021 27.7839 3.35147 25.7663 10.2986C20.8125 16.3883 15.1964 21.7662 8.91888 26.4307C0.970993 27.3932 -1.66476 24.0754 1.01089 16.4769C6.09881 10.3672 11.7142 4.87543 17.8583 0.00146484Z" fill="#287ECB" fill-rule="evenodd" transform="translate(108.73 204.861)" />
      <path d="M8.25182 0C13.2675 3.74817 17.7373 8.09561 21.661 13.043C22.4188 23.0436 17.9491 26.8192 8.25182 24.3698C5.29492 22.1059 2.54431 19.5885 0 16.8186C2.9239 14.3604 5.33069 11.4998 7.22034 8.2377C8.01527 5.54807 8.3591 2.80217 8.25182 0Z" fill="#267ECB" fill-rule="evenodd" transform="translate(136.545 208.655)" />
    </g>
  </g>
</svg>